<svg aria-hidden="true" focusable="false" data-prefix="fas" data-icon="industry" role="img" xmlns="http://www.w3.org/2000/svg" viewBox="0 0 512 512">
    <path id="home" fill="currentColor" d="M475.115 163.781L336 252.309v-68.28c0-18.916-20.931-30.399-36.885-20.248L160 252.309V56c0-13.255-10.745-24-24-24H24C10.745 32 0 42.745 0 56v400c0 13.255 10.745 24 24 24h464c13.255 0 24-10.745 24-24V184.029c0-18.917-20.931-30.399-36.885-20.248z" />
    <path id="unesco" fill="currentColor"  d="M84.4,183.5v157.6c0,4.3-0.5,6.4,0.9,8.5c0.7,1.4,2.1,2.1,3.3,2.1c1.7,0,3.1-0.7,4-2.4c1.4-2.1,1.2-4.3,1.2-8.8V183.5h7.4 v160.7c0,10.9-4,16.4-12.6,16.4c-3.6,0-6.6-1.2-9-3.8c-2.4-2.6-3.6-6.6-3.6-12.3V183.5H84.4L84.4,183.5z M163,359.6l-11.9-108.2 v108.2h-6.4V183.5h8.5l0,0l12.1,101.6V183.5h5.5v176.1H163z M234.9,262.8v6.2h-11.6v83.3h13.3v7.4h-23.7V183.5h22.1v7.6l0,0h-11.6 v71.7H234.9z M465.3,158.6v14.7H50.7v-14.7l0,0H465.3z M465.3,372.7v14.7H50.7v-14.7l0,0H465.3z M488.1,402.3V417h-464v-14.7l0,0 H488.1z M511.4,431v15H0.6v-15l0,0H511.4z M256,66l208.4,59.3V141L254.1,83.8L49.8,142l0,0v-15.7L256,66z M417.2,142h-43 l-116.5-31.6L141.4,141L97,142l0,0l161.1-46.3L417.2,142z M294,234.3h9v-34.2c0,0-0.2-10-2.6-12.8c-2.4-2.6-5.2-5-11.4-5 c-5.9,0.2-7.4,1.9-9.5,4.5c-2.4,2.6-3.3,7.1-3.3,11.9c0,4.7,0.2,25.9,0.9,33c0.7,6.9,7.4,34.9,11.2,48.4c3.6,13.8,5.2,20.6,5.5,24.4	c0.2,4,0.7,17.6,0.2,24.2c-0.2,6.6,0,15.9,0,15.9s0.5,7.4-3.8,7.4c-4.5,0-4-7.4-4-7.4v-41.8h-9v41.5c0,0-2.4,15.2,11.9,15.2 c14.5,0,14.5-13.5,14.5-13.5v-38c0,0-0.7-12.6-3.1-21.4c-2.4-8.5-10-35.8-11.6-43.4c-1.9-8.1-2.6-19.9-2.6-30.6	c0-10.7,0.2-17.3,0.2-17.3s-0.2-5,3.8-5c3.8,0,3.6,5.2,3.6,5.2L294,234.3L294,234.3z M363,234.8h7.8v-41.1c0-6.4-3.6-12.8-12.3-12.8 c-8.1,0-12.8,5.9-12.8,13.1v154.3c0,6.9,4.7,12.8,12.8,12.8c8.8,0,12.3-6.2,12.3-12.6v-46.3H363v46c0,2.4,0.2,5.2-4.5,5.2 c-5,0-4.5-4.3-4.5-5.9V194.4c0-1.7-0.5-5.9,4.5-5.9c4.8,0,4.5,3.1,4.5,5.5V234.8L363,234.8z M428.5,180.9c-8.1,0-13.8,5.9-13.8,13.1 v154.3c0,6.9,5.7,12.8,13.8,12.8c8.8,0,13.3-6.2,13.3-12.6V193.7C441.8,187.3,437.3,180.9,428.5,180.9L428.5,180.9z M434,348.2 c0,2.4-0.7,5.2-5.5,5.2c-5,0-5.5-4.3-5.5-5.9V194.4c0-1.7,0.5-5.9,5.5-5.9c4.7,0,5.5,3.1,5.5,5.5V348.2L434,348.2z"/>
    <path id="hazu" fill="currentColor" d="M74.51,436.91l.31-1.78c.89-2.28,8.4-19.23,11.09-25.67,1.49-3.76,1.09-5,.6-5.85l-1.09-1.39-.2-.58c.29-.31.59-.11,1.68,1.08s3.27,3.27,5.55,5.65l.7,1.19-.69-.19-1,.48-4,8.62.1.5,6.64,6.73h.49l5.85-2.57a8.23,8.23,0,0,0,2.27-1.38l-.29-2.09-.39-.49-.21-.7.79.2,3.08,3.27c.3.4,2.08,1.89,3.56,3.48l.31.89-.61-.11-1-.88c-1.58-1.2-3.17-.79-5.26.1L76.6,436.52a6.37,6.37,0,0,1-1.7.54.62.62,0,0,1-.39-.15Zm7-5.75-.1.39.4-.09L92,426.9l.11-.3-5.46-5.55h-.29l-4.76,10.11ZM61.24,415.1c-4.06-.78-7.83-3-11.6-8a44.9,44.9,0,0,1-3.37-5.17c-.79-1.37-1.29-2.67-2-3.76v-.79c.28-.21.78-.4,2.08-1.29,1.08-.7,3-2.18,3.66-2.57l1.08-.2-.49.89a5.93,5.93,0,0,0-2.08,3.66c-.39,2,.7,5.25,3,8.43,2.27,2.86,4.45,4.25,6.93,4.76,4.07.79,7.73-1,11-3.48,8-6,7.44-15.15,4.06-19.62-2.27-3.07-4-4.56-6.54-4.75a7.13,7.13,0,0,0-3.07.49l-1,.11.29-.7a51.88,51.88,0,0,1,5-2.67l1.68.2a21.47,21.47,0,0,1,5.36,5.44c3.47,4.66,5.35,9.31,5,14.37A15.62,15.62,0,0,1,73.42,412a16,16,0,0,1-9.57,3.32,15,15,0,0,1-2.61-.26Zm-29.13-35,.59-1.59c1.58-2,13.38-16.24,17.74-21.69,2.57-3.18,2.47-4.57,2.17-5.46l-.69-1.58.08-.52.22.21,0-.38c.21.09.48.47,1.05,1.47.7,1.39,2.18,4.07,3.76,7l.31,1.3-.61-.31-1.08.09L49.55,366l-.11.49L54,374.78l.49.09,6.35-.89a5.82,5.82,0,0,0,2.57-.69c.69-.3,1-.89.29-2.08l-.29-.59v-.7l.69.39c.69,1.19,1.49,2.9,2.08,4.07.2.4,1.49,2.39,2.48,4.26l.09.89-.59-.29-.69-1.09c-1.19-1.59-2.78-1.59-5.05-1.29l-28.34,3.47a11.13,11.13,0,0,1-1.24.13c-.43,0-.63-.1-.75-.33Zm8.22-3.67-.2.4.5.1,10.9-1.69.2-.2L48,368.23l-.3-.09-7.33,8.32ZM22.59,360.11c-.79-2.07-1.58-4.65-2-5.75s-1.5-3.66-2.39-6c-1.88-5-4.26-11.6-1.39-17.55a15.06,15.06,0,0,1,8.63-7.53,16.67,16.67,0,0,1,12.68.2c2.48,1.18,6.83,4.26,9.51,11.5,1.09,3,2,6.63,2.68,8.62.29.88,1.38,3.36,2,5l-.06.59a.25.25,0,0,0-.24,0l0,.17-.37-.37-.7-1.29c-.4-.8-1.38-.6-2.57-.41-1.69.41-4.86,1.59-8.53,3l-6.93,2.58c-6,2.17-7.14,2.57-8.33,3.17-1.38.5-1.88,1.09-1.68,2.48l.49,1.59-.1.78-.69-.69Zm6-32c-5.05,1.89-7.52,5.15-8.52,7.43a16.71,16.71,0,0,0,.2,12.69l1.18,2.48,1,.19c1.39-.39,4.86-1.68,7.93-2.87l5-1.88c4.16-1.49,7.24-2.68,7.93-3l2.87-1.6c.51-.78.8-2.56-.39-5.73-1.49-4.06-3.28-6.45-6.14-8a9.05,9.05,0,0,0-4.49-1.1,19.74,19.74,0,0,0-6.62,1.39ZM52,349.29l0-.18a.26.26,0,0,1,.24,0l0,.37-.22-.21ZM9,320.07c-.5-2.17-.9-4.76-1.19-5.93s-2-9.51-2.19-10.31L5,302.15l-.3-.7.3-.3a10.75,10.75,0,0,0,2.77-.2l2.78-.39.6.28-.49.5-1.5.61c-.7.39-1.09,1-.89,3.06l1.09,5.85.5.2,10.4-2.18.41-.39-1.5-6.64-1-1.78-.69-.6.19-.3c.3-.11,1,0,3.08-.39l2.87-.41.8.21-.3.39-1.39.5c-.79.4-1.29,1.18-1.09,2.68l1.09,5.93.5.11,3.26-.7c1.39-.3,5.16-1.08,6.35-1.38,2.87-.71,3.36-1.48,2.38-5.66a10.08,10.08,0,0,0-1.29-3.75c-.69-1-1.69-1.3-3.47-1.19l-.7-.4.7-.5,4.64-.4c1.1,0,1.21.4,1.6,2,1.29,6.23,1.68,9,2.18,11.49.2.89.9,3.47,1.29,5.15l-.3.88-.49-.58-.4-1.39c-.4-.79-1.29-.79-2.57-.69a62.9,62.9,0,0,0-8.82,1.69l-7.24,1.47c-6.24,1.4-7.43,1.7-8.72,2s-2,.89-2,2.27l.2,1.69-.2.78L9,320.07Zm25.07-29.13-.3-1.29c-.31-1.19-2-1.38-3.37-1.47L2.67,285.6,1.58,285c0-.4.1-.6,1.19-1.19l23.09-13-24.77-10L0,259.92l1.28-.79,25.77-5.44c2.67-.51,3.86-1,4.17-2.28a10.77,10.77,0,0,0,.28-2.68l.21-.69.59,1.09c0,1.09.29,6.84.2,8.62l-.39,1.2-.5-.4c-.1-.31-.6-.41-1.78-.11l-18.34,3.67v.09l19.62,8c2.09.9,2.48,1.1,2.48,1.49s-.79.8-2,1.59c-1.89,1.08-8.13,4.86-9.32,5.36-.89.48-6,3.36-9.11,4.95l.1.19L30.12,285h2l1.28-1.39.09-1.78.31-.6.49,1c.1,1.78.1,3.66.1,4.46s.3,2.77.4,4.06l-.4.8-.29-.61Zm-1.5-45.58-.09-1.49c-.1-.89-.79-1.2-2-1.39a81.3,81.3,0,0,0-9.22-.89L14,241c-6.45-.39-7.63-.49-8.92-.49-1.49-.1-2.18.29-2.47,1.19l-.3,1.49-.5.69-.2-1c.1-1.69.4-4.27.5-5.55.09-1,.09-3.48.2-5.16l.39-.79.4.69.1,1.29c.1,1.09.79,1.49,2.27,1.69,1.3.2,2.48.3,8.92.79l7.34.49c4.16.3,7.43.6,9.21.5,1.2,0,2-.2,2.29-1.48l.26-2,.23-.32a2.33,2.33,0,0,1,.05-.28l.15-.22.29.79c-.19,2.78-.49,5.46-.59,6.54s-.11,3.66-.3,5.36l-.39.79-.31-.69Zm.31-12.2.2-1.28c.1-1.89-1.19-3-3.18-4.17L5.74,212.55c-1.09-.69-1.48-1-1.38-1.38s.49-.6,1.49-.9c2.47-.49,20.6-4.16,27.35-5.64,4.06-.9,4.85-2,5.14-2.88l.51-1.68.49-.5c.29.1.29.5,0,2s-.8,4.56-1.49,7.84l-.5,1.18-.29-.59-.9-.6-9.41,1.78-.4.3-1.58,9.32.19.4,5.56,3.37,2.48,1c.69.19,1.28-.1,1.58-1.39l.1-.6.38-.59.31.79c-.19,1.29-.69,3.08-.89,4.36-.1.48-.37,2.59-.74,4.68l-.26.37,0,.23-.26.37-.3-.6ZM13.08,213.55l-.4.19.3.3,9.51,5.65.3-.1L24.17,212l-.2-.3-10.89,1.89Zm20.4,19.61.26-.37a2.33,2.33,0,0,0-.05.28l-.23.32,0-.23ZM36.76,185l-.79-.79.79-.2,2.18.4a5.89,5.89,0,0,0,6-4.17c1.29-3.56-.49-6.23-2.58-7s-4.06-.79-7.72,1.59l-2.18,1.28c-4.95,3.17-8.33,3.67-11.49,2.48-4.36-1.58-6.15-6.44-4.17-11.89a24.77,24.77,0,0,1,2.58-5l.69-.39c.51.19,1.69.79,4.76,1.88l1,.89-.9.19a4.78,4.78,0,0,0-3,0,5.46,5.46,0,0,0-3.47,3.67c-1.09,2.88-.1,5.35,2.37,6.15,1.79.69,3.48.3,7.14-2.09l1.29-.79c5.45-3.47,8.72-4.16,12.48-2.77a8.34,8.34,0,0,1,5.55,6.24,12.24,12.24,0,0,1-.69,6.84,14.62,14.62,0,0,1-3.17,5.44l-1.59.2c-2.17-.79-4.56-1.78-5.15-2.08Zm-.2-25.46a15.78,15.78,0,0,1-7.93-9.71c-1.08-4-.79-8.33,2.09-13.88a38.6,38.6,0,0,1,3.17-5.25c1-1.29,1.88-2.37,2.57-3.36l.8-.41c.3.2.69.5,2,1.3s3.27,1.68,4,2.17l.59.89h-1a6.2,6.2,0,0,0-4.26-.39c-1.88.59-4.45,3-6.24,6.44-1.68,3.27-1.88,5.84-1.29,8.22,1.1,4.06,4.26,6.64,7.93,8.52,8.92,4.57,16.85.11,19.43-4.94,1.78-3.38,2.37-5.55,1.48-7.93a7.62,7.62,0,0,0-1.78-2.58l-.5-.9h.7a53.28,53.28,0,0,1,4.56,3.38l.59,1.58a24.17,24.17,0,0,1-2.68,7.14c-2.57,5.15-6,8.92-10.7,10.8a14.85,14.85,0,0,1-5.36,1,17.93,17.93,0,0,1-8.12-2.11Zm30.52-23,.7-1.39L66.69,133a86.81,86.81,0,0,0-7.53-5.35L53,123.57c-5.35-3.58-6.34-4.27-7.43-4.95-1.28-.7-2.08-.8-2.78-.11l-1,1.19L41,120l.3-1c.9-1.38,2.47-3.47,3.17-4.56.59-.8,1.89-3,2.78-4.36l.78-.5-.09.8-.6,1.09c-.39,1.08,0,1.78,1.19,2.67s2.08,1.49,7.33,5l6.25,4.16c3.36,2.28,6.14,4.07,7.72,5,1,.48,1.79.69,2.68-.21l1.28-1.78.7-.3-.09.89c-1.59,2.29-3.17,4.47-3.77,5.36s-1.89,3.07-2.87,4.46l-.8.49.1-.69Zm10.31-15.16.79-1.29-1-2.38a75,75,0,0,0-6.74-5.85l-5.75-4.75c-5-4.07-5.94-4.86-7-5.65s-1.88-1-3-.1l-1.2,1.19-.68.3.29-1c1.39-1.69,3.17-3.67,4-4.56.89-1.09,6.14-7.53,6.64-8.23l1-1.48.3-.7.4.1c.29.2.5.69,2,2l2,2,.1.6-.7-.1-1.39-.79c-.68-.2-1.37-.2-3,1.29l-3.87,4.45.1.5,8.23,6.84h.59l4.16-5.25.89-2v-.89h.4a22.1,22.1,0,0,0,2.18,2.28l2.09,1.88.39.8-.59.09-1.3-.89c-.78-.29-1.58-.29-2.77.8L71,105.14l.21.49,2.56,2.08c1.1.89,4.07,3.46,5,4.16,2.38,1.78,3.27,1.69,6-1.68a9.84,9.84,0,0,0,2.08-3.37c.3-1.19,0-2.08-1.19-3.46l-.2-.7.8.2,3.26,3.36c.7,1,.41,1.29-.59,2.48-4.06,5-6,6.94-7.63,8.82-.59.79-2.17,3-3.27,4.27l-.89.39.2-.79Zm15.26-18.83,1.28-1.49c.6-1-.09-2-2.57-4.75L74.82,77.69l-.5-1.49c.29-.3,1-.1,2-.1.8.1,10.11.89,18.84,1.19,4.06.19,12.29.89,13.27.89l.2-.1L95.52,64.31c-1.79-1.88-2.57-2.18-3.66-1.78l-1.79,1.28-.79.21.59-1.1c1.58-1.49,3.17-2.68,3.86-3.27.31-.39,1.49-1.49,3-2.87l1-.4-.3.79-.9.9c-.59,1.09-.3,2,1.29,3.76l17.53,19.92.51,1.38-1.68.3c-3.68-.09-11.41-.59-17.55-.79-6.44-.3-13.48-1-14.56-1.09l-.1.1L94.24,94.43c2.27,2.38,3.36,2.78,4.26,2.48l1.78-1.29.8-.29-.5,1c-2,1.88-3.27,2.87-3.87,3.46-.29.2-1.68,1.69-3.37,3.18l-.88.29.19-.69Zm34.78-29.43,1.19-1c.59-.59.3-1.49-.3-2.58a87.4,87.4,0,0,0-4.76-7.63L114,47.56l-5.15,3.67c-2,1.39-2.67,2.18-2.77,3.27l.29,1.59-.09.69-.7-.3-2-4.56V51l1.79-.59c1.08-.6,2.47-1.49,3.56-2.18l13.87-9.32a28,28,0,0,0,3.17-2.57l.79.49L129.31,41l.1.78-.89-.49-.29-.29c-.7-.9-2.29-1.3-5.46.79l-4.45,2.77,9.61,14.46c2.18,3.17,4,6,5.15,7.34.8.89,1.49,1.58,2.68,1l1.88-1.09.78-.1-.49.79c-2.28,1.59-4.55,3-5.54,3.57-.8.6-3,2.18-4.37,3.08l-.89.19.3-.69Zm30-18.14.29-.49,1.19-.6c1.79-.89,2-2.57,2-4.85V20.5c0-1.28.09-1.78.49-2l1.48.89c1.79,1.78,14.37,15.26,19.33,20.22,2.87,3,4.26,3,5.15,2.87l1.69-.5.59.1a.25.25,0,0,1,0,.2l-.23.2h.06a5.08,5.08,0,0,1-1.45.69c-1.39.59-4.27,1.78-7.44,2.87l-1.29.19.4-.59v-1l-6.44-7.13-.59-.11L164,41l-.2.39.09,6.43a7.82,7.82,0,0,0,.41,2.68c.29.7.78,1.1,2.07.6l.5-.3.79.1-.49.69c-1.29.5-3.07,1-4.27,1.49-.36.18-2.16,1-4.06,1.79l-.69.09-.15.06-.54-.06Zm6-27.55.3,11,.2.3,7.23-2.88.1-.4L164,27.25l-.4-.3-.1.49Zm26,15.08a.6.6,0,0,0,.17-.21l.36-.3,1.49-.49c.78-.4.69-1.39.59-2.58-.2-1.78-1.09-4.95-2-8.72L188.38,23c-1.59-6.23-1.89-7.33-2.28-8.61s-1-2-2.39-1.89l-1.58.2-.8-.2.8-.59c2.18-.5,4.75-1,5.64-1.29,1.39-.29,4.47-1.19,5.76-1.49a13.57,13.57,0,0,1,7.93-.19,7.21,7.21,0,0,1,4.15,4.95c.8,3,.2,6.15-3.06,10.51,4.74,3.66,8.51,6.54,11.58,8.52,2.89,1.78,4.67,1.68,5.26,1.58l1.18-.09.6.19-.69.6-3.87,1a8.33,8.33,0,0,1-4.55.29c-2-.49-4.07-2-7.14-4.55-2.17-1.89-4.76-4.17-5.45-4.66l-.79-.1-3.67.79-.2.4.11.59a90.62,90.62,0,0,0,2.47,8.73c.4,1.09.89,2,2.18,1.78l2-.3.6.2-.69.59c-2.38.6-5.45,1.29-6.05,1.39-.79.2-3.37,1-5,1.39l-.92-.19Zm3.69-31.32a13.33,13.33,0,0,0-2.17.69l-.2.7L193.92,25l.6.7a12.33,12.33,0,0,0,3.16-.4c1.7-.4,2.19-.7,2.78-1.38,1-1.3,1.69-3.48.89-6.75-1.22-4.79-4.29-6.12-6.67-6.12a5.56,5.56,0,0,0-1.46.18Zm31.22,21.7c-2.38-1.69-4.25-4.66-4.95-10.81l-.59-6c-.6-6.45-.8-7.64-1-8.92s-.59-2.09-2-2.19h-1.69l-.69-.29.79-.5c2.28-.2,5-.4,6.15-.49,1-.11,3.66-.5,5.15-.6l1,.2-.59.49-1.29.2c-1.09.4-1.29,1.09-1.29,2.58s.2,2.57.8,8.92l.59,5.84c.69,6.14,2.18,8.53,4.36,10a7.55,7.55,0,0,0,5.45,1.19,8.28,8.28,0,0,0,5.55-2.87c2.08-2.48,1.77-6.25,1.39-10.61l-.5-5.25c-.69-6.34-.79-7.52-1-8.91s-.7-2.09-2.08-2.19h-1.59l-.69-.29.8-.5c2.17-.2,4.85-.29,4.85-.29.49-.11,3.17-.5,4.76-.6l1,.2-.8.49-1.19.3c-1.08.31-1.39,1-1.28,2.47s.2,2.58.79,8.93l.49,4.55c.5,4.66.5,9.62-2.67,13a13,13,0,0,1-8.42,4c-.69,0-1.52.12-2.46.12a11.66,11.66,0,0,1-7.16-2.1Zm59.66,1.29-1.19-.5.48-.5c.31,0,.5-.59.41-1.78l-1.3-18.63h-.2L271.9,31.21c-1.19,2-1.39,2.28-1.79,2.28s-.69-.89-1.27-2.18c-.9-2-3.78-8.72-4.27-9.91-.3-.9-2.48-6.34-3.77-9.61h-.1l-3.36,16.55-.2,2,1.19,1.48,1.68.31.69.29-1.1.4c-1.77-.11-3.65-.3-4.35-.4-.89-.1-2.87-.09-4.25-.2l-.69-.49.69-.2,1.29-.1c1.18-.1,1.58-1.78,2-3.17l5.95-27.15L261,0c.3,0,.6.3,1.09,1.39L272,25.86,285,2.67l1-1,.7,1.39,2.08,26.25c.2,2.69.59,3.87,1.78,4.37a6.79,6.79,0,0,0,2.58.59l.69.4-1.18.4c-1-.1-6.84-.6-8.53-.89Zm40.32,9.41c-6-1.69-8.73-2.67-11.1-3.37-1-.3-3.56-.89-5.25-1.29l-.6-.7.7-.09,1.48.3c.9,0,1.29-.79,1.78-2,.7-1.59,1.59-4.86,2.69-8.52l2-7.23c1.78-6.15,2.08-7.24,2.36-8.62s.1-2.09-1.08-2.78l-1.59-.59-.59-.5,1-.19c2.18.69,4.66,1.48,5.84,1.78s9.42,2.67,10.11,2.88l1.88.19h.69l.11.49c-.11.3-.39.7-1.09,2.49l-.89,2.67-.61.3-.19-.7.19-1.49c-.09-.78-.28-1.38-2.28-2.17l-5.73-1.79-.4.3L321,23.29l.2.49,6.44,1.68c1.09.21,1.68.3,2.18,0l.8-.4.2.4a26.15,26.15,0,0,0-1.2,2.88L328.68,31l-.58.7-.3-.5.3-1.49c0-.89-.42-1.58-1.9-2.17l-5.75-1.79-.29.4-.89,3.16c-.41,1.4-1.49,5.16-1.78,6.35-.7,2.78-.3,3.57,3.85,4.76a10.94,10.94,0,0,0,4,.6c1.18-.2,2-.9,2.67-2.48l.69-.5.11.79L327,43.2c-.34.54-.61.76-1,.76a6.15,6.15,0,0,1-1.55-.36ZM163.6,493.49c-1-.5-6.14-3.17-7.63-4l-.89-1,.69-.2c.2,0,.59-.39,1-1.48L162.6,469l-.09-.1L145.76,482.1c-1.69,1.28-2.08,1.58-2.37,1.38s-.4-1.09-.4-2.47c-.1-2.28-.21-9.52-.21-10.82.11-1,.21-6.82.21-10.29l-.1-.1-9.41,14.06-1,1.78.6,1.81,1.49.88.39.59h-1.08c-1.59-.8-3.28-1.78-3.88-2.08-.79-.4-2.68-1.2-3.85-1.78l-.51-.69h.79l1.2.38c1.19.31,2.18-1,3-2.17l15.94-22.78,1.1-.71c.3.1.4.4.4,1.69l-.1,26.45,20.91-16.64,1.28-.39.11,1.48-8.13,25.07c-.8,2.58-.89,3.86,0,4.75L164.3,493l.49.59-1.19-.09Zm22.1,7c-3-.89-6.54-2.37-8.53-3-1-.3-3.57-.9-5.15-1.29l-.69-.69.69-.1,1.59.21c.79.09,1.29-.71,1.78-1.9.69-1.58,1.58-4.85,2.67-8.61l2-7.13c1.78-6.15,2.08-7.24,2.38-8.63s.19-2.08-1.1-2.78l-1.58-.59-.59-.59,1.09-.11c2.08.7,4.66,1.49,5.74,1.78,1.29.41,3.87,1,6.34,1.7,5.06,1.48,11.8,3.37,15,9.22a15.36,15.36,0,0,1,1,11.48,15.73,15.73,0,0,1-15.84,12,25.54,25.54,0,0,1-6.76-1Zm2-29.72c-.4,1.28-1.49,4.84-2.39,8L183.91,484c-1.28,4.26-2.08,7.43-2.27,8.22-.31,1-.71,2.67-.4,3.17.3,1,1.59,2.28,4.75,3.17,4.17,1.19,7.23,1.19,10.21-.28,3.27-1.5,5.06-5,6.35-9.13a14.65,14.65,0,0,0-1.09-11.29c-2.68-4.56-7.14-6.35-10.31-7.34l-2.77-.4-.7.7Zm43.5,38.75c-5.75-.7-10.4-2.59-13.87-6.35-3.66-4.05-4.16-8.92-3.66-13a15.93,15.93,0,0,1,6.23-10.9c3.37-2.38,7.54-3.56,13.78-2.78a37.92,37.92,0,0,1,6.05,1.11c1.58.39,2.87,1,4,1.17l.6.61a22,22,0,0,1-.49,2.27c-.2,1.39-.5,3.66-.7,4.56l-.59.89-.3-1a6.34,6.34,0,0,0-1.19-4.06c-1.18-1.59-4.36-3.17-8.22-3.57-3.57-.49-6.15.2-8.13,1.59-3.36,2.47-4.65,6.33-5.16,10.4-1.18,10,5.75,15.85,11.4,16.54,3.78.41,6.05.3,7.93-1.48l1.78-2.59.6-.78.3.69a33.67,33.67,0,0,1-1.59,5.46l-1.19,1.08a14.36,14.36,0,0,1-3.48.35c-1.35,0-2.82-.11-4.15-.24Zm22.09-3.27a16.09,16.09,0,0,1-5.44-12.3,15.7,15.7,0,0,1,4.65-11.69c3-2.86,6.93-4.64,13.18-4.84a58.2,58.2,0,0,1,6.15.28c1.58.2,3,.51,4.16.6l.69.49c0,.41-.09.89-.09,2.38s0,3.67-.11,4.56l-.49,1-.39-.9a6.18,6.18,0,0,0-1.79-3.86c-1.39-1.48-4.76-2.47-8.62-2.47-3.67.1-6.05,1.1-7.83,2.87-3,2.87-3.67,6.94-3.57,11,.19,10,7.92,14.84,13.57,14.66,3.77-.09,6.05-.5,7.73-2.48l1.29-2.87.6-.9.4.7a43.23,43.23,0,0,1-.79,5.65l-1.1,1.18a25.65,25.65,0,0,1-7.63,1.19h-.71c-5.44,0-10.06-1.12-13.86-4.25Zm35.88-2.09a16.09,16.09,0,0,1-7.23-11.39,16.41,16.41,0,0,1,3-12.29c2.57-3.17,6.23-5.56,12.38-6.54a37.33,37.33,0,0,1,6.14-.69c1.59,0,3,.09,4.27,0l.69.4c.09.38,0,.88.2,2.37s.59,3.66.59,4.46l-.3,1.09-.6-.9a5.67,5.67,0,0,0-2.27-3.56c-1.59-1.19-5.05-1.78-8.83-1.09s-5.84,1.88-7.42,3.87c-2.57,3.37-2.68,7.43-2,11.49,1.7,9.8,10,13.47,15.56,12.59,3.77-.7,5.94-1.49,7.24-3.67l1-3,.4-.89.49.5a37.4,37.4,0,0,1,0,5.75l-.89,1.38a24.62,24.62,0,0,1-7.33,2.19,31,31,0,0,1-5.15.47,19.15,19.15,0,0,1-9.91-2.56Zm31.9-2.57.49-.6,1.49-.59c.7-.4.7-1.28.5-2.58-.39-1.68-1.29-5-2.48-8.62L319,482.1c-1.89-6.15-2.28-7.23-2.68-8.52s-1.08-1.89-2.47-1.8l-1.39.3-.8-.19.8-.6c1.89-.6,4.45-1.19,5.55-1.58s3.86-1.3,5.44-1.78l1,.09-.59.61-1.59.58c-1,.6-1.09,1.4-.79,2.78s.69,2.48,2.57,8.63l2.08,7c1.58,5.25,2.48,8,3.47,8.53.89.29,2.09.29,5.15-.7,2.19-.6,3.77-1.08,4.46-2.48l.3-2.77.19-.8.61.6a37.31,37.31,0,0,1,.77,4.85c0,1-.09,1.3-2.16,1.89-5.84,1.78-8.62,2.28-11.88,3.28-.91.29-3.39,1.17-5.07,1.67l-.89-.09ZM348.91,52.91c-2.6-1-5-2.18-6.07-2.67-1-.3-3.45-1.29-4.94-1.89l-.7-.69.8-.1,1.48.4c.8.2,1.39-.49,2-1.58.89-1.59,2.18-4.67,3.66-8.23l6.75-16L346,19.92c-2.37-.9-3.37-1.09-4.26-.5l-1.28,1.08-.59.3-.11-.79L342.46,16l.79-.59,1.48,1.18a33,33,0,0,0,3.77,1.79L364,24.87A16.36,16.36,0,0,0,367.83,26v1c-.4.79-1.59,3.47-2,4.46l-.61.5-.2-1,.2-.39c.3-1.1-.29-2.58-3.65-4.16l-4.87-2.18-6.73,16c-1.49,3.67-2.78,6.74-3.28,8.42-.28,1.2-.49,2.08.69,2.78l1.89,1,.5.59Zm42.59,25c-1.28-.9-3.86-2.58-6.63-4.46l-.89-1h.7l.89-.59,2.07-9.31-.19-.5-7.94-5.15L379,57l-5.16,3.76-2,1.79c-.39.69-.4,1.28.69,2.07l.5.31.39.69-.89-.1c-1.08-.7-2.58-1.79-3.56-2.58-.41-.2-2.47-1.39-4.26-2.57l-.5-.8h.59l1.19.6c1.79.89,3.17.09,5-1.19l23.4-16.35c1.09-.8,1.58-1,1.89-.79s.38.69.2,1.78c-.4,2.48-4.26,20.51-5.46,27.35-.79,4.06-.1,5.25.59,6L393.09,78l.31.59a.29.29,0,0,1-.25.13,4.61,4.61,0,0,1-1.65-.82Zm-1.18-29.24-8.92,6.54v.39l6.54,4.27.3-.1L390.72,49l.09-.5-.49.2Zm26.46,51.13-3.08-2.67a9.56,9.56,0,0,1-2.87-3.57c-.7-1.88-.6-4.46-.3-8.42.2-2.88.7-6.34.59-7.13l-.29-.7-2.78-2.48h-.49l-.39.5a86.37,86.37,0,0,0-5.65,6.93c-.8,1-1.2,1.89-.3,2.88l1.38,1.49.2.59-.89-.3c-1.87-1.58-4.16-3.66-4.65-4.16s-2.68-2.09-4-3.27l-.39-.79.8.19,1.28.8,2.39-.9c1.38-1.29,3.46-3.76,6-6.73l4.85-5.55c4.17-4.87,4.95-5.85,5.75-6.84.9-1.19,1.09-1.88.2-3.07l-1.09-1.19-.41-.7,1,.3c1.69,1.49,3.67,3.27,4.26,3.87,1.08,1,3.68,3,4.67,3.77,2,1.78,3.95,3.76,4.64,6.44a6.94,6.94,0,0,1-1.58,6.24c-2.08,2.38-4.86,3.76-10.4,3.56-.2,6-.5,10.81-.3,14.37.19,3.37,1.3,4.76,1.68,5.26l.8.89.21.59-.9-.2Zm1.39-37.25-8.34,9.71-.19.79,2.18,2.38c1.29,1.18,1.79,1.39,2.69,1.49,1.58.09,3.75-.6,6-3.17,3.86-4.57,2.08-8.43.19-10.12l-1.88-1.29-.69.21Zm8.72,49.34c-1.9-2.08-3.57-4.16-4.37-5s-2.58-2.68-3.66-3.87l-.21-1,.7.29,1.09,1,2.58-.59c1.39-1,3.87-3.27,6.84-5.85l12.77-11.59-4.26-4.56c-1.78-1.79-2.57-2.39-3.75-2.28l-1.5.49h-.69l.2-.69,4.26-2.67.9-.1.79,1.68c.79,1,1.78,2.18,2.67,3.28l11.19,12.39a35.78,35.78,0,0,0,3.08,2.76l-.5.79-3.66,3.18-.79.19.39-.88.3-.4c.7-.79.89-2.38-1.59-5.26l-3.46-4.06-12.89,11.59c-2.87,2.68-5.35,4.86-6.54,6.25-.79.89-1.28,1.68-.59,2.77l1.28,1.69.21.69-.79-.3Zm14.16,18.53c-1.68-2.17-3.17-4.45-3.76-5.34s-2.28-2.88-3.27-4.27l-.2-.9.69.31,1.1,1.19c.59.59,1.28.29,2.37-.3a78.49,78.49,0,0,0,7.52-5.25l6.06-4.36c5.15-3.77,6.14-4.46,7.13-5.36,1.19-.88,1.49-1.58,1.09-2.47l-.69-1.39-.09-.79.88.69c.89,1.29,2.38,3.47,3.17,4.46.59.89,2.18,2.78,3.07,4.06l.2,1-.7-.3-.79-1c-.88-.8-1.69-.69-2.86.2a87.6,87.6,0,0,0-7.34,5.15l-5.95,4.36c-3.36,2.37-6.05,4.36-7.43,5.54-.79.8-1.28,1.49-.7,2.59l1.2,1.88.1.69-.8-.4ZM458,154.19a12.75,12.75,0,0,1-6.94-6.25c-1.09-1.88-3-5.54-2-9.51.6-2.87,2.58-5.84,7.93-8.82l5.35-3c5.55-3.17,6.64-3.67,7.73-4.46,1.29-.79,1.68-1.39,1.29-2.77l-.7-1.49-.09-.79.79.59c1.08,2,2.28,4.36,3,5.45.39.89,1.89,3.17,2.57,4.46l.11,1-.6-.38-.69-1c-.8-.89-1.59-.79-2.88-.2s-2.27,1.2-7.82,4.26l-5.16,3c-5.34,3-7,5.25-7.44,7.93a7.67,7.67,0,0,0,1,5.44,8.53,8.53,0,0,0,4.86,4c3.17.89,6.53-.89,10.3-3l4.66-2.58c5.55-3.17,6.55-3.76,7.73-4.46s1.57-1.38,1.19-2.77l-.59-1.39v-.8l.69.6c1.09,1.88,2.28,4.26,2.28,4.26.28.5,1.68,2.68,2.47,4.17l.09.89-.69-.4-.69-1c-.79-.89-1.58-.89-2.87-.19s-2.28,1.08-7.82,4.25l-4,2.19c-3.07,1.71-6.42,3.31-9.8,3.31a9.89,9.89,0,0,1-3.28-.54Zm16.16,47.56c-.42-1-2.2-6.54-2.68-8.22l.09-1.29.51.3c.19.19.78.09,1.77-.4l16.65-8.62v-.2l-21.1-2.18c-2.18-.3-2.68-.4-2.79-.69s.5-1.09,1.49-2.09c1.5-1.68,6.45-6.93,7.45-7.83.69-.58,4.84-4.75,7.32-7.23l-.09-.2-16.56,3.57-1.87.5-.8,1.68.4,1.79-.11.69-.79-.8c-.6-1.68-1.08-3.56-1.38-4.25s-1.09-2.58-1.49-3.87l.21-.89.49.49.48,1.19c.69,1,2.38.8,3.78.5l27.35-5.26,1.28.31-.89,1.47-18.64,18.84,26.57,2.76,1.28.61-1,1.09-23.28,12.39c-2.39,1.18-3.38,2-3.27,3.36a6.88,6.88,0,0,0,.39,2.58v.69l-.78-.79Zm7.32,41.72-1.29-1a23.37,23.37,0,0,1-1.88-7.43c-.69-5.75,0-10.7,2.88-14.87a15.33,15.33,0,0,1,11.69-6.63A15.56,15.56,0,0,1,505,217c3.16,2.67,5.24,6.53,6,12.77a47.42,47.42,0,0,1,.29,6.05c0,1.68-.29,3.07-.2,4.26l-.48.69c-.31.1-.8,0-2.28.1s-3.68.41-4.56.41l-1-.41.79-.49a5.49,5.49,0,0,0,3.66-2.08c1.3-1.59,2.09-5,1.59-8.82-.39-3.67-1.59-5.95-3.46-7.54-3.17-2.77-7.23-3.06-11.3-2.57-10,1.19-14.07,9.32-13.38,15,.4,3.66,1.09,5.94,3.27,7.34l2.89,1.09.87.49-.48.41c-.16,0-.55,0-1,0-1.37,0-3.64-.09-4.72-.24Zm-2.07,37.26.09-4c0-2.38.2-3.46.89-4.56,1-1.78,3-3.26,6.25-5.64,2.38-1.59,5.34-3.47,5.94-4l.3-.8.2-3.67-.3-.29-.59-.1c-4,0-7.24-.09-9,.11-1.28.08-2.18.28-2.38,1.58l-.2,2-.4.5-.38-.8c.09-2.47.28-5.54.28-6.23s-.09-3.47,0-5.16l.41-.79.29.69.2,1.48c.1.9,1.09,1.1,2.27,1.3a86.15,86.15,0,0,0,8.93.39l7.43.2c6.44.1,7.62.19,9,.1s2.08-.39,2.39-1.78l.2-1.59.39-.79.39,1c-.09,2.18-.3,4.85-.3,5.75v5.94c-.09,2.67-.39,5.55-2,7.74a7.44,7.44,0,0,1-5.84,2.77c-3.18-.11-5.94-1.49-9.32-5.75-4.85,3.56-8.62,6.43-11.3,8.82-2.47,2.37-2.87,4.06-3,4.65l-.21,1.2-.28.49-.4-.8Zm16-22.49a11.07,11.07,0,0,0-.49,3.18,3.74,3.74,0,0,0,.69,3.06c.89,1.3,2.76,2.48,6.23,2.59,5.95.19,7.74-3.77,7.83-6.24a14,14,0,0,0-.09-2.28l-.61-.41-12.77-.29-.79.39Zm-5.45,57c-9.51-1.68-15.86-9.7-14.08-20.21,2.1-12,11.89-15.17,19.23-13.87,7.13,1.18,15.46,7.52,13.28,20-1.58,9.1-7.34,14.35-15.22,14.35a18.92,18.92,0,0,1-3.21-.28Zm-12.3-18.13c-.49,2.86-.29,9.91,11.7,12,9.32,1.68,16-2.67,17.24-9.52.9-4.76-.89-10.7-11.19-12.48a21.47,21.47,0,0,0-3.77-.34c-7,0-12.79,3.61-14,10.35Zm-14.16,44.69c.5-1.49,1.49-4.36,2.67-7.52l.7-1.1.19.69.8.68,9.51-.39.4-.29,3-8.92-.2-.5-4.95-4.06L473.35,319c-.69-.28-1.39-.08-1.78,1.09l-.19.7-.51.49-.19-.89c.4-1.28,1.09-3,1.59-4.15.1-.5.69-2.68,1.39-4.76l.69-.7.2.59-.39,1.29c-.42,2,.78,3.18,2.47,4.66l21.79,18.43c1,.8,1.4,1.2,1.2,1.59s-.5.5-1.59.6c-2.48.2-21,1.18-27.94,1.68-4.06.39-5,1.39-5.56,2.08l-.69,1.68-.48.4c-.31-.1-.31-.5.19-2Zm16.54-8,.21.3,11.11-.3.39-.1-.31-.4-8.62-6.93h-.31l-2.47,7.43Zm1,43.7-4.37-2.18-.48-.59,1-.11.49.21c1,.4,2.59-.21,4.18-3.57l2.37-4.76-15.66-7.33a82.79,82.79,0,0,0-8.21-3.66c-1.11-.4-2.09-.51-2.78.49l-1.09,1.88-.6.5v-.9c1.18-2.48,2.47-4.85,3-5.94.39-.9,1.38-3.38,2.08-4.85l.8-.6v.79l-.5,1.39c-.19.89.5,1.48,1.59,2.08a83.55,83.55,0,0,0,8,4.06l15.67,7.33L489,356c1-2.28,1.28-3.28.69-4.26l-1.08-1.19-.21-.69.79-.11,4,2.88.49.79-1.19,1.49a34.08,34.08,0,0,0-2,3.66l-7.13,15.17a17.67,17.67,0,0,0-1.29,3.86l-1-.1ZM471.38,393l.58-1.19c.41-1.09-.09-1.67-1.28-2.57s-2.08-1.39-7.54-4.67l-6.43-3.86c-3.47-2.18-6.34-3.86-7.92-4.66-1.09-.5-1.9-.59-2.69.4l-1.29,1.69-.59.39.11-.89c1.39-2.38,2.86-4.56,3.46-5.56.5-.78,1.78-3.16,2.69-4.65l.78-.5-.11.81-.58,1.38,1.09,2.18c1.49,1.09,4.26,2.78,7.83,4.95l6.34,3.76c5.44,3.37,6.44,4,7.72,4.67s2.09.59,2.69,0l1-1.3.69-.29-.2,1c-.89,1.38-2.37,3.58-3,4.66-.58.89-1.78,3.07-2.56,4.46l-.8.58V393Zm-24.19,28.64c-1-.9-2.86-2.28-3.47-2.87l-.48-1,1,.2a5.76,5.76,0,0,0,4.07,1.09c2.08-.2,4.95-2.18,7.33-5.24,2.29-2.88,3-5.37,2.77-7.84-.39-4.16-3.07-7.24-6.24-9.71-8-6.14-16.55-3.18-20,1.29-2.28,3-3.36,5.05-2.88,7.63a7.2,7.2,0,0,0,1.3,2.77l.38,1-.78-.09a41.78,41.78,0,0,1-3.88-4.17l-.29-1.59c.5-1.78,2.28-4.45,3.87-6.62,3.56-4.57,7.52-7.64,12.48-8.63a16.74,16.74,0,0,1,19.23,14.36c.4,4.17-.8,8.32-4.65,13.27a34.59,34.59,0,0,1-4.07,4.67c-1.09,1.09-2.19,1.89-3.07,2.87l-.81.2c-.29-.2-.58-.59-1.78-1.58Zm-13.27,17.74c-2.38-.9-19.22-8.53-25.57-11.21-3.86-1.68-5.14-1.17-5.84-.7l-1.39,1.11-.69.09c-.19-.2,0-.5,1.09-1.58s3.27-3.27,5.74-5.55l1.18-.7-.19.7.39,1,8.73,4.07.49-.1,6.75-6.53v-.5l-2.58-6a8.34,8.34,0,0,0-1.29-2.28l-2.18.19-.39.5-.7.2.21-.79,3.26-3.07c.3-.3,1.88-2,3.47-3.57l.89-.29-.1.68-.9.9c-1.19,1.58-.78,3.16.11,5.25l10.91,26.37c.48,1.18.58,1.78.28,2.09l-1.68-.31Zm-14-11.91v.31l10,4.75.39.2-.09-.5-4.45-10.1-.3-.09-5.56,5.43Zm-76.2,67.39.4-.59,1.3-.79c1-.9,1.38-1.88,1.87-4.36l2.78-13.77-11.51-8.12a6.11,6.11,0,0,0-4.44-1.39l-1.79.39-.5-.2.59-.7c1-.39,4.17-1.68,6-2.47.6-.19,2.65-1.28,4.06-1.89h.89l-.39.61-1,.59-.2.89.89.89c3.08,2.39,6.05,4.45,8.73,6.34.28-2.17,1.58-9.12,1.58-10.4l-.19-1.69-.89-.4-1.31.4-.69-.09.69-.7c1.5-.69,3.18-1.29,4-1.58a38.9,38.9,0,0,1,3.67-1.79h.89l-.5.69-1.3.79c-.78.6-1.09,2.09-1.48,4.27l-2.39,11.89c2.1,1.39,13,9.12,14.49,9.91a4.55,4.55,0,0,0,3,.59l1.59-.4.6.11-.6.69-1.09.5c-.89.39-4,1.78-7,3-1,.4-1.28.5-1.48.21l.39-.6-.3-1c-3.76-2.89-7.72-5.67-10.8-7.84l-1.59,11.8.21,1.88,1,.29.89-.29.59.09-.59.69-.69.31-3.67,1.47-3.17,1.6-.7.29-.69-.1Zm33.2-15.95,1.18-.88c.7-.5.61-1.29,0-2.4a65.56,65.56,0,0,0-4.35-8.11l-3.66-6.44c-3.18-5.56-3.77-6.64-4.46-7.73s-1.58-1.58-2.48-1.4l-1.38.7-.81-.09.7-.8c1.39-.78,3.76-2,4.87-2.58.88-.48,3-1.87,4.34-2.67l1-.1-.39.7-1,.7c-.89.78-.89,1.58-.2,2.86s1.19,2.28,4.37,7.83l3.66,6.44c2.08,3.57,3.66,6.44,4.75,7.93.69.89,1.29,1.39,2.49,1l2-1h.7l-.49.8c-2.38,1.38-4.77,2.58-5.76,3.07-.78.48-3.06,2-4.56,2.77l-.89.1.4-.7ZM145,61l1.26-.9,0-2.45a81.4,81.4,0,0,0-4.17-8.23L138.58,43c-3.07-5.65-3.64-6.74-4.27-7.85-.81-1.22-1.48-1.67-2.4-1.39l-1.44.6-.84-.1.72-.74c1.44-.81,3.82-1.93,4.94-2.56.9-.43,3-1.75,4.49-2.57l.93-.08-.46.67-1,.69c-.86.78-.83,1.57-.19,2.92s1.14,2.29,4.13,7.89L146.74,47c1.92,3.59,3.54,6.45,4.52,8,.66.89,1.26,1.44,2.47,1.07l2-1,.76,0-.5.76c-2.47,1.28-4.89,2.47-5.82,3s-3.1,1.86-4.64,2.62l-.91.07L145,61Zm114.76,75.53c.48,3.94,4.83,2.6,7.91,2.49a85.47,85.47,0,0,1,20.93,1.72c24.52,5,39.68,26.14,61,34.76,4.73,1.91,21.28,16.51,22.33,20.47,2.24,8.44.57,16,.5,24.21a47.12,47.12,0,0,1-3.32,17.9c-2,5-1.41,11-3.24,16-2.39,6.49,3.17,11.5,3.84,17.47.27,2.16-.14,4.36.58,6.07,1.77,4.19.95,7.71-.59,11.82-1.67,4.41-1.32,6.71-2.24,11.52-3.15,16.14-14.08,35.59-15.44,50.72-.31,3.21-2.33,7-2.76,10.17-2,15.15-.09,29.14,0,44.17,0,1.71,1.71,9.19-1.79,9.29a29.59,29.59,0,0,0-12,3.29c-8.07,4.64-30.05-.38-37.92-2.16-6.63-1.48-13.66-.14-20.15,0-8.2.09-16.4,0-24.6,0a78,78,0,0,0-15.07,1.66A36.48,36.48,0,0,0,222,425c-1.78,1.45-8.08,1.91-10.25,2.46-3.95,1.05-8.47.27-11.06-2.93-5.23-6.41,10.48-4,11.9-4.06,8.35-.12,16.19-7.72,14.8-16.31-.2-1.29-2.69-2.71-3.71-3.43-4.9-3.62-16-4.15-19.86,1.24-.63.86-1.07,4.72-1.36,6.41-.41,2.3-1.16,6.23-4.14,6.34-6,.21-20.11,8.95-21.14-1.63-.32-3.31-.4-5.53-.52-8.72-.29-9.27-1.55-24.61-4.95-33.39-1.91-5-.15-14.77-1.14-20.53-3.34-19.15-15.09-35.24-12.08-55.19,1.33-9-.21-25.71,10.45-29.14,9-2.89,17.52-1.85,27.18-1.88,1.41,0-.09-23.25-7.1-31.7-10-12.14-9.31-27.08-6.28-41.06,2.17-9.93,6.56-19.3,15-25.71,5.7-4.3,14.57-5.14,17-13,2-6.74,10.31-7.37,10.52-14.77.11-3.29,7.44-7.51,1.82-10.48-5-2.58-5.7-3-5.76-8.69,0-2.55-3.12-4.33-3.3-6.8-.2-3.49.34-10.64,1.66-13.86.11-7.44,4.64-7.47,7.51-13.22,2.68-7.7,9.64-4.19,10,2.69,2.87,7.3-4.85,15.57,1.67,22,4.83,2.93,2.67,12.46,9.71,9.57,3.42,0,11.59-2.21,14.17-4.58,6.88-7.55-5.37-21.45-11.09-25.74-4.8-2.5-6.75-9.37.11-10a12.5,12.5,0,0,1,9.61,5.47c3.55,5.77,12.82,10.79,8.31,18.61-2.71,4.69-.36,9.85-3.1,14.22-2.54,4-1.22,4.94-1.85,8.87-.13.82-1,1.48-1.71,2-2.68,2.07-3.64-7-7.2-5.71s-1.32,7.31-1,10.27c.3,2.73,4.61,1.26,4.9,3.93ZM281,147.14c4,0,9.44,4.21,13.25,5.61,15.37,5.65,30.33,18.15,44.7,26.6,11.7,6.86,22.34,17.69,24.06,31.73,1.1,9.09-2,15.95-2,24.17,0,2.82,1.48,19.09-.86,21-1.34,1.12-3.24-2.65-3.74-3.58C354.65,249.5,340,236.45,335.71,238c-4.53,1.67-6.18,1.72-8.7,5.94-3.64,6.05-5.33-3.74-5.36-6.08,0-3.75.63-7.61-2-10.54-1.46-1.61-12.82.31-14.49.51-8.1,1-17.54-1.86-24.9-4.88-1.66-.7-11.7-3.74-8.24-5.85a2.58,2.58,0,0,1,1.4-.44c4.51,0,5.36-7.3,8.79-7.68,3.87-.41,4.33-4.7,7.24-6.39,2.19-1.26,5-1.92,5.66-4.84,1.42-6.63-12.38-.3-15.45-.24-3.39.07,4.89-6,5.45-6.23,2.62-1.05,1.91-4.35-.41-5.31-1.09-.42-10,4.4-12.55,5-3.47.73-5.55-.47-9.15,1.26-6.22,2.94-12.86,9-14.54,16-.34,1.36,4.52,8.3,5.57,9.37a76,76,0,0,0,15.27,12.3c5.22,3.28-8.82,24.45-12.89,26.53-3.66,1.88-8.58,11.77-13.12,11.75-1.69,0-3.5.56-5.09,0-9.29-3.31-17.71-12.3-21.95-21.34-2.81-5.9-10.6-11.19-14-18-5.1-10.2-10.91-21.82-10.85-33.46,0-7.58,2.22-11.55,6.22-17.53,4.1-6.16,14.26-5.18,20.26-8.37,3.84-2,6-.09,9.67.94,7,2,12.92-3.8,19.5.86,3.27,2.34,5.25,8.51,5.76,12.48.23,1.69.39,7.13,3,7,1.72-.12,6.27-5.35,6.13-7.13-.14-2.09-2-3.73-2.14-5.78-.19-3.75-2.62-7.26-3.31-10.8-.37-2-1.15-2.56,1-4.1,3.43-2.4,7.2-5.24,8.38-9.74,2-7.41,8.46-6,15.09-6Zm-3.66,30.24c5.77,6.49-6.85,13.9-9.87,9.2-.87-1.28,7.58-11.82,9.87-9.2Zm62.18,67.41c2.53,0,5.58,4.78,7.29,6.54,4.14,4.23,5.3,5.86,5.34,11.57.05,4.21,4.78,7.64,7.37,10.44.53.58,4.83,9.32,1.94,9.13-2.33-.14-5.79-7.09-9.07-8.35s-7.47-5-9.8-7.26c-2.11-2.07-4.81-1.49-7.49-1.47-2,0-9.56,6.61-7.55,8.86,1.29,1.45,3-.49,4.06-.85,8.1-2.65,16.14,1.58,21,8.44,1.94,2.72,6.15,4.6,6.17,7.8,0,2.42.78,7.31,0,9.53-5.86,15.67-10.88,32.68-15.45,48.82-3,10.44-14.94,25.7-23.4,32.48-1.34,1.06-16.46,11.92-17,6.63-.77-7.24,10.32-11,10.94-18.41.07-.84.57-1.26.59-2.11.39-10.74-6.26-6.2-12.39-3-11,5.77-30.88,8.83-41.55.37-6.08-4.79-11.89-9.24-18-13.92s-11.77-6.85-17.3-12.42c-5.35-5.42-8.17-14.38-12.73-20.42-2.86-3.81-8.13-7.84-8.3.14,0,1.3,1.16,2.32,1.69,3.5,2.7,6.07,2.92,12.74,5.52,18.82,1.47,3.4,4,6.29,5.82,9.63,2.65,5,5.19,10.58,9,14.8,4.48,4.91,9.52,13.61,16,16.11,4.31,1.69,8,7.09,12.13,9.13,5.95,2.9,12.07,7.32,18.92,7.82,1,.07,4.33,1.3,3.54,2.8-3.3,6.37-24.49,4.13-29.9,3.39-6.46-.9-9.86-3.28-15.4-6.09-8.72-4.43-15-8.5-24.77-3.68-3.85,1.92-6.36,5.15-9.12.31-1-1.79-1.24-3.46-2.08-5.24-4.77-10-5.86-26.48-12.25-35.59-7.42-10.54-9.93-25.43-14.52-37.28-2.64-6.92-1.66-15.89-1.7-23.22,0-3.66-2.57-9.91-.14-13.1,3.66-4.75,7.39-6.7,13.17-4.83s18.62,4.7,21,10.7c3.22,8.21,12.6,15.8,19.13,21,5.85,4.68,12.36,3.7,19.43,4.75,10.32,1.51,40.36,7.53,47-1.32,5.39-7.3-13.37-6.16-17.06-6.82-11.89-2.17-19.1-7.18-28.56-14-1.23-.89-10.56-8.89-5.34-9.35,3.16-.31,7.49-2.19,10.41-2.19,16.35,0,50.59,11.36,62.82,8.3,3.72-.92,13.86-3.65,13.86-8.08,0-5.41.5-7.44,4-11.64,3.2-3.9,2.66-7.26,2.68-12.29s5.74-8.89,10.16-8.87Zm-3.83,61c1.86,2.8-4.77,12.9-6.69,15.71-7.45,11-18.15,18.35-29.32,24.94-2.65,1.58-5.53,2.44-8.31,3.89-11.29,5.91-29.91-4.22-38.61-13.28-2.21-2.3-14.69-14.49-8.17-13.72,17,2,34.28,11.08,55.09,6a24.08,24.08,0,0,0,9.38-4.6c7.73-6.22,15.61-12.23,23.35-18.87.93-.78,2.46-1.32,3.28-.1ZM315.24,396c4,.05,7.76,7,12.23,7.15,1.5,0,12.17,2.43,8.2,6-6.75,6-15.62,3.55-23.83,3.6-2.28,0-13.79-2.38-10.26-6.48,3.72-4.28,7.15-10.33,13.66-10.24Z" />
    <g id="impresum">
		<path fill="currentColor" d="M414,343.4c-52.2-19.9-83.4-40.3-83.4-40.3l-40.2,127.2l-5.5,17.2l-18-51c41.4-57.7-3.1-60.5-10.9-60.5l0,0h-0.1h-0.1
			h-0.1h-0.1l0,0c-7.7,0.1-52.2,2.8-10.8,60.5l-18,51l-5.5-17.2l-40.2-127.2c0,0-31.2,20.4-83.4,40.3
			c-57.5,20.9-53.9,68.2-55.1,156.8h213.1h0.5h213.1C467.9,411.6,471.4,364.3,414,343.4z"/>
		<path fill="currentColor" d="M154.1,240c-5.2,11.1-14,24.9-28.1,31.8c-4.6,2.3-3.6,9.2,1.5,10c15.4,2.4,37.5-0.3,58.1-15.9l0.3,0.2
			c52.3,30.9,120.8,23.8,165.8-21.1c53.4-53.4,53.4-139.9,0-193.2c-53.4-53.4-139.8-53.4-193.2,0c-51.4,51.4-53.3,133.4-5.8,187.1
			L154.1,240z M260.8,64c12.3,0.1,22.1,10.1,22,22.6c-0.1,12.3-10.1,22.4-22.1,22.3c-12.4-0.1-22.4-10.2-22.3-22.6
			C238.5,73.8,248.5,64,260.8,64z M217.5,123.8c0.3-2.4,1.8-4,5-4.6c1.7-0.3,3.4-0.4,5.1-0.4c6.8,0,13.7,0,20.5,0
			c7.2,0,14.5,0,21.7,0c5.2,0,8.3,2.5,8.4,7.7c0.1,4.3-0.6,8.7-1.4,13c-2.8,15.9-5.8,31.8-8.7,47.7c-1,5.3-2,10.5-2.7,15.8
			c-0.3,2.5,0.1,5.2,0.7,7.7c0.8,3.3,3.3,5.2,6.7,4.8c2.8-0.3,5.6-1.3,8.3-2.3c2.2-0.8,4.1-2.3,6.3-3.2c3.2-1.3,5.9,1,5.1,4.3
			c-0.5,1.9-1.7,3.9-3.1,5.3c-8.1,8.2-17.8,13.1-29.4,13.2c-5.4,0.1-10.9-0.1-16.2-0.9c-8.9-1.3-20.2-12.3-18.6-24.1
			c1.1-8,2.3-16.1,3.7-24c2.4-13.9,4.9-27.8,7.3-41.7c0.2-0.9,0.2-1.8,0.2-2.7c0-5.8-1.8-7.9-7.6-8.7c-2.5-0.3-5-0.5-7.3-1.4
			C218.5,128.3,217.3,126,217.5,123.8z"/>
	</g>
</svg>