<svg aria-hidden="true" focusable="false" data-prefix="fas" data-icon="industry" role="img" xmlns="http://www.w3.org/2000/svg" viewBox="0 0 512 512">
    <path id="home" fill="currentColor" d="M349,38.2L134.2,0L0,217.6l231,53.8L354.1,70.9l89.9,86.3v275.5l-46.1,16.4V284.2l-64,19.2v165.9l-71.7,23l-1.8-246.8
	l-24.1,41L35.1,239.1v190l216.9,83l210.7-70.2V211.7l49.7,6.9v-21L349,38.2z M270.1,108.1L241.2,157V57.1L205.1,51l28.4-16.4
	l36.6,5.4V108.1z" />
    <path id="unesco" fill="currentColor" d="M45.6,366.9h419.8v-17.4H45.6V366.9z M22.1,397h466.3v-17.4H22.1V397z M0,427.1h511.4v-17.4H0V427.1z M45.6,148.1h419.8
	v-17.4H45.6V148.1z M130.5,116.2l124.9-37.6L378,116.2h51.2L255.5,62.7L79.8,116.2 M45.6,116.2l209-63.9l211.3,63.9V97.4L255.5,32.6
	L45.6,97.4 M70.4,326.1c0,0,0,13.1,15,13.1s14.1-13.1,14.1-13.1V155.2H88.8v171.4c0,0,0,3.3-3.8,3.3s-3.3-3.8-3.3-3.8V155.2H70.4
	 M139.5,339.2h8.9V233.6l10.8,105.7h9.4V155.2h-9.4V243l-6.1-87.8h-13.6 M209.4,339.2h28.2v-9.9h-16v-83.1h11.7v-10.3h-11.7v-71.4
	h11.7v-9.4H209 M371.4,210.1v-41.3c0,0-0.5-13.1-14.6-13.1s-14.1,13.1-14.1,13.1v157.8c0,0-0.5,13.1,14.1,13.1
	c14.6,0,14.6-13.1,14.6-13.1v-46h-10.8v46c0,0,0,3.3-3.8,3.3c-3.3,0-3.8-3.3-3.8-3.3V168.8c0,0,0-3.8,3.8-3.8c3.8,0,3.8,3.8,3.8,3.8
	v41.3 M430.6,326.1c0,0,0.5,3.8-3.8,3.8s-4.2-3.8-4.2-3.8V168.8c0,0,0-3.8,3.8-3.8c4.2,0,4.2,3.8,4.2,3.8V326.1z M441.4,243.9v-75.1
	c0,0,0.9-13.1-14.6-13.1s-15.5,13.1-15.5,13.1v157.8c0,0,0,13.1,14.6,13.1c15.5,0,15.5-13.1,15.5-13.1v-58.2 M290.7,326.1
	c0,0,0,3.8-2.8,3.3c-2.8,0-2.8-3.3-2.8-3.3v-46h-11.3v46c0,0-0.5,13.1,14.1,13.1s14.6-13.1,14.6-13.1v-32.4c0,0,0,1.9,0-7
	c0-21.6-17.4-62.9-17.4-76.5c0-1.9,0-3.8,0-3.8v-37.6c0,0-0.5-3.8,2.8-3.8s3.3,3.8,3.3,3.8v41.3h11.3v-41.3c0,0,0.5-13.6-14.1-13.1
	c-14.6,0.5-14.6,13.1-14.6,13.1V204c0,23,17.4,62,17.4,79.8v4.2" />
    <path id="hazu" fill="currentColor" d="M28.6,149.8c-1.1-4-0.8-8.3,2.1-13.9c0.9-1.8,2-3.6,3.2-5.3c1-1.3,1.9-2.4,2.6-3.4l0.8-0.4c0.3,0.2,0.7,0.5,2,1.3
	s3.3,1.7,4,2.2l0.6,0.9h-1c-1.3-0.6-2.8-0.8-4.3-0.4c-1.9,0.6-4.5,3-6.2,6.4c-1.7,3.3-1.9,5.8-1.3,8.2c1.1,4.1,4.3,6.6,7.9,8.5
	c8.9,4.6,16.9,0.1,19.4-4.9c1.8-3.4,2.4-5.6,1.5-7.9c-0.4-1-1-1.9-1.8-2.6l-0.5-0.9h0.7c1.6,1,3.1,2.2,4.6,3.4l0.6,1.6
	c-0.5,2.5-1.4,4.9-2.7,7.1c-2.6,5.1-6,8.9-10.7,10.8c-1.7,0.7-3.5,1-5.4,1c-2.8-0.1-5.6-0.8-8.1-2.1l0,0
	C32.7,157.5,29.8,154,28.6,149.8z M4.4,211.2c0.1-0.4,0.5-0.6,1.5-0.9c2.5-0.5,20.6-4.2,27.4-5.6c4.1-0.9,4.8-2,5.1-2.9l0.5-1.7
	l0.5-0.5c0.3,0.1,0.3,0.5,0,2c-0.3,1.5-0.8,4.6-1.5,7.8l-0.5,1.2l-0.3-0.6l-0.9-0.6l-9.4,1.8l-0.4,0.3l-1.6,9.3l0.2,0.4l5.6,3.4
	l2.5,1c0.7,0.2,1.3-0.1,1.6-1.4l0.1-0.6l0.4-0.6l0.3,0.8c-0.2,1.3-0.7,3.1-0.9,4.4c-0.1,0.5-0.4,2.6-0.7,4.7l0,0c0,0.1,0,0.2,0,0.2
	l-0.2,0.3v0.1l-0.3,0.4l-0.3-0.6l0,0l0.2-1.3c0.1-1.9-1.2-3-3.2-4.2L5.7,212.5C4.7,211.9,4.3,211.5,4.4,211.2z M12.7,213.7L13,214
	l9.5,5.7l0.3-0.1l1.4-7.6l-0.2-0.3l-10.9,1.9v0L12.7,213.7z M255.3,32.4c0.7,0.1,2.6,0.3,4.4,0.4l1.1-0.4l-0.7-0.3l-1.7-0.3
	l-1.2-1.5l0.2-2l3.4-16.5h0.1c1.3,3.3,3.5,8.7,3.8,9.6c0.5,1.2,3.4,7.9,4.3,9.9c0.6,1.3,0.9,2.2,1.3,2.2c0.4,0,0.6-0.3,1.8-2.3
	l10.3-18.4h0.2l1.3,18.6c0.1,1.2-0.1,1.8-0.4,1.8l-0.5,0.5l1.2,0.5h0.1c1.7,0.3,7.5,0.8,8.5,0.9l1.2-0.4l-0.7-0.4
	c-0.9,0-1.8-0.2-2.6-0.6c-1.2-0.5-1.6-1.7-1.8-4.4l-2.1-26.3L286,1.7l-1,1l-13,23.2l-9.9-24.5C261.6,0.3,261.3,0,261,0l-0.8,1.1
	l-6,27.2c-0.4,1.4-0.8,3.1-2,3.2l-1.3,0.1l-0.7,0.2l0.7,0.5C252.4,32.3,254.4,32.3,255.3,32.4z M21,178.6c3.2,1.2,6.5,0.7,11.5-2.5
	l2.2-1.3c3.7-2.4,5.6-2.4,7.7-1.6c2.1,0.8,3.9,3.4,2.6,7c-0.8,2.6-3.3,4.3-6,4.2l-2.2-0.4l-0.8,0.2l0.8,0.8l-0.1,0.1
	c0.6,0.3,3,1.3,5.2,2.1l1.6-0.2c1.4-1.6,2.5-3.4,3.2-5.4c0.9-2.2,1.1-4.5,0.7-6.8c-0.6-2.9-2.7-5.3-5.5-6.2c-3.8-1.4-7-0.7-12.5,2.8
	L28,172c-3.7,2.4-5.4,2.8-7.1,2.1c-2.5-0.8-3.5-3.3-2.4-6.1c0.5-1.7,1.8-3.1,3.5-3.7c1-0.3,2-0.3,3,0l0.9-0.2l-1-0.9
	c-3.1-1.1-4.3-1.7-4.8-1.9l-0.7,0.4c-1,1.6-1.9,3.2-2.6,5C14.8,172.1,16.6,177,21,178.6z M461.4,163.2l-0.5-1.2l-0.5-0.5l-0.2,0.9
	c0.4,1.3,1.2,3.2,1.5,3.9c0.3,0.7,0.8,2.6,1.4,4.3l0.8,0.8l0.1-0.7l-0.4-1.8l0.8-1.7l1.9-0.5l16.6-3.6l0.1,0.2
	c-2.5,2.5-6.6,6.6-7.3,7.2c-1,0.9-6,6.2-7.5,7.8c-1,1-1.6,1.8-1.5,2.1c0.1,0.3,0.6,0.4,2.8,0.7l21.1,2.2v0.2l-16.6,8.6
	c-1,0.5-1.6,0.6-1.8,0.4l-0.5-0.3l-0.1,1.3c0.5,1.7,2.3,7.2,2.7,8.2l0,0l0.8,0.8v-0.7c-0.3-0.8-0.4-1.7-0.4-2.6
	c-0.1-1.4,0.9-2.2,3.3-3.4l23.3-12.4l1-1.1l-1.3-0.6l-26.6-2.8l18.6-18.8l0.9-1.5l-1.3-0.3l-27.4,5.3
	C463.7,164,462.1,164.2,461.4,163.2z M33.8,289.6l0.3,1.3l0,0l0.3,0.6l0.4-0.8c-0.1-1.3-0.4-3.3-0.4-4.1s0-2.7-0.1-4.5l-0.5-1
	l-0.3,0.6l-0.1,1.8l-1.3,1.4h-2l-16.9-1.2l-0.1-0.2c3.1-1.6,8.2-4.5,9.1-5c1.2-0.5,7.4-4.3,9.3-5.4c1.2-0.8,2-1.2,2-1.6
	c0-0.4-0.4-0.6-2.5-1.5l-19.6-8v-0.1l18.3-3.7c1.2-0.3,1.7-0.2,1.8,0.1l0.5,0.4l0.4-1.2c0.1-1.8-0.2-7.5-0.2-8.6l-0.6-1.1l-0.2,0.7
	c0,0.9-0.1,1.8-0.3,2.7c-0.3,1.3-1.5,1.8-4.2,2.3l-25.8,5.4L0,259.9l1.1,0.9l24.8,10l-23.1,13c-1.1,0.6-1.2,0.8-1.2,1.2l1.1,0.6
	l27.7,2.6C31.8,288.3,33.5,288.5,33.8,289.6z M492.9,213.5c-4.7,0.3-9,2.7-11.7,6.6c-2.9,4.2-3.6,9.1-2.9,14.9
	c0.2,2.6,0.8,5.1,1.9,7.4l1.3,1l0,0c1.1,0.1,3.4,0.2,4.7,0.2c0.5,0,0.8,0,1,0l0.5-0.4l-0.9-0.5l-2.9-1.1c-2.2-1.4-2.9-3.7-3.3-7.3
	c-0.7-5.7,3.4-13.8,13.4-15c4.1-0.5,8.1-0.2,11.3,2.6c1.9,1.6,3.1,3.9,3.5,7.5c0.5,3.8-0.3,7.2-1.6,8.8c-0.9,1.2-2.2,1.9-3.7,2.1
	l-0.8,0.5l1,0.4c0.9,0,3.1-0.3,4.6-0.4c1.5-0.1,2,0,2.3-0.1l0.5-0.7c-0.1-1.2,0.2-2.6,0.2-4.3c0-2-0.1-4-0.3-6
	c-0.8-6.2-2.8-10.1-6-12.8C501.6,214.2,497.2,212.9,492.9,213.5z M2.3,243.2l0.3-1.5c0.3-0.9,1-1.3,2.5-1.2c1.3,0,2.5,0.1,8.9,0.5
	l7.3,0.6c3.1,0.1,6.2,0.4,9.2,0.9c1.2,0.2,1.9,0.5,2,1.4l0.1,1.5l0,0l0.3,0.7l0.4-0.8c0.2-1.7,0.2-4.3,0.3-5.4
	c0.1-1.1,0.4-3.8,0.6-6.5l-0.3-0.8l-0.1,0.2c0,0.1,0,0.2-0.1,0.3l-0.2,0.3l-0.3,2c-0.3,1.3-1.1,1.5-2.3,1.5c-1.8,0.1-5-0.2-9.2-0.5
	l-7.3-0.5c-6.4-0.5-7.6-0.6-8.9-0.8c-1.5-0.2-2.2-0.6-2.3-1.7l-0.1-1.3l-0.4-0.7l-0.4,0.8c-0.1,1.7-0.1,4.2-0.2,5.2
	c-0.1,1.3-0.4,3.9-0.5,5.5l0.2,1L2.3,243.2z M27.6,312.8c2.9-0.8,5.8-1.3,8.8-1.7c1.3-0.1,2.2-0.1,2.6,0.7l0.4,1.4l0.5,0.6l0.3-0.9
	c-0.4-1.7-1.1-4.3-1.3-5.1c-0.5-2.5-0.9-5.3-2.2-11.5c-0.4-1.6-0.5-2-1.6-2l-4.6,0.4l-0.7,0.5l0.7,0.4c1.8-0.1,2.8,0.2,3.5,1.2
	c0.7,1.2,1.1,2.4,1.3,3.8c1,4.2,0.5,5-2.4,5.7c-1.2,0.3-5,1.1-6.4,1.4l-3.3,0.7l-0.5-0.1l-1.1-5.9c-0.2-1.5,0.3-2.3,1.1-2.7l1.4-0.5
	l0.3-0.4l-0.8-0.2l-2.9,0.4c-2.1,0.4-2.8,0.3-3.1,0.4l-0.2,0.3l0.7,0.6l1,1.8l1.5,6.6l-0.4,0.4l-10.4,2.2l-0.5-0.2L8.3,305
	c-0.2-2.1,0.2-2.7,0.9-3.1l1.5-0.6l0.5-0.5l-0.6-0.3l-2.8,0.4c-0.9,0.2-1.8,0.3-2.8,0.2l-0.3,0.3l0.3,0.7l0.6,1.7
	c0.2,0.8,1.9,9.1,2.2,10.3s0.7,3.8,1.2,5.9l0.6,0.9l0.2-0.8l-0.2-1.7c0-1.4,0.7-2,2-2.3s2.5-0.6,8.7-2L27.6,312.8z M423,102.7
	l-2.6,0.6l-1.1-1l-0.7-0.3l0.2,1c1.1,1.2,2.9,3,3.7,3.9c0.8,0.8,2.5,2.9,4.4,5v-0.1l0.8,0.3l-0.2-0.7l-1.3-1.7
	c-0.7-1.1-0.2-1.9,0.6-2.8c1.2-1.4,3.7-3.6,6.5-6.3l12.9-11.6l3.5,4.1c2.5,2.9,2.3,4.5,1.6,5.3l-0.3,0.4l-0.4,0.9l0.8-0.2l3.7-3.2
	l0.5-0.8c-1.1-0.9-2.1-1.8-3.1-2.8l-11.2-12.4c-0.9-1.1-1.9-2.3-2.7-3.3l-0.8-1.7l-0.9,0.1l-4.3,2.7l-0.2,0.7h0.7l1.5-0.5
	c1.2-0.1,2,0.5,3.8,2.3l4.3,4.6l-12.8,11.6C426.9,99.5,424.4,101.7,423,102.7z M342.8,50.2c1.1,0.5,3.5,1.7,6.1,2.7l0.9,0.1
	l-0.5-0.6l-1.9-1c-1.2-0.7-1-1.6-0.7-2.8c0.5-1.7,1.8-4.8,3.3-8.4l6.7-16l4.9,2.2c3.4,1.6,4,3.1,3.7,4.2L365,31l0.2,1l0.6-0.5
	c0.4-1,1.6-3.7,2-4.5v-1c-1.3-0.2-2.6-0.6-3.8-1.1l-15.5-6.5c-1.3-0.5-2.6-1.1-3.8-1.8l-1.5-1.2l-0.8,0.6l-2.7,4l0.1,0.8l0.6-0.3
	l1.3-1.1c0.9-0.6,1.9-0.4,4.3,0.5l5.9,2.2l-6.8,16c-1.5,3.6-2.8,6.6-3.7,8.2c-0.6,1.1-1.2,1.8-2,1.6l-1.5-0.4l-0.8,0.1l0.7,0.7
	C339.4,49,341.8,49.9,342.8,50.2z M458.7,106.1c-1,0.9-2,1.6-7.1,5.4l-6.1,4.4c-2.4,1.9-4.9,3.6-7.5,5.3c-1.1,0.6-1.8,0.9-2.4,0.3
	l-1.1-1.2l-0.7-0.3l0.2,0.9c1,1.4,2.7,3.4,3.3,4.3c0.6,0.9,2.1,3.2,3.8,5.3v0l0.8,0.4l-0.1-0.7l-1.2-1.9c-0.6-1.1-0.1-1.8,0.7-2.6
	c1.4-1.2,4.1-3.2,7.4-5.5l6-4.4c2.4-1.8,4.8-3.6,7.3-5.2c1.2-0.9,2-1,2.9-0.2l0.8,1l0.7,0.3l-0.2-1c-0.9-1.3-2.5-3.2-3.1-4.1
	c-0.8-1-2.3-3.2-3.2-4.5l-0.9-0.7l0.1,0.8l0.7,1.4C460.2,104.6,459.9,105.3,458.7,106.1z M313.2,40.2c2.4,0.7,5.1,1.7,11.1,3.4
	l0.1,0c0.5,0.2,1,0.3,1.5,0.4c0.4,0,0.7-0.2,1-0.8l1.8-4.4l-0.1-0.8l-0.7,0.5c-0.7,1.6-1.5,2.3-2.7,2.5c-1.4,0.1-2.7-0.2-4-0.6
	c-4.2-1.2-4.6-2-3.9-4.8c0.3-1.2,1.4-4.9,1.8-6.3l0.9-3.2l0.3-0.4l5.8,1.8c1.5,0.6,1.9,1.3,1.9,2.2l-0.3,1.5l0.3,0.5l0.6-0.7
	l0.9-2.7c0.3-1,0.7-1.9,1.2-2.9l-0.2-0.4l-0.8,0.4c-0.5,0.3-1.1,0.2-2.2,0l-6.4-1.7l-0.2-0.5l2.8-10.3l0.4-0.3l5.7,1.8
	c2,0.8,2.2,1.4,2.3,2.2l-0.2,1.5l0.2,0.7l0.6-0.3l0.9-2.7c0.7-1.8,1-2.2,1.1-2.5l-0.1-0.5H334l-1.9-0.2c-0.7-0.2-8.9-2.6-10.1-2.9
	c-1.2-0.3-3.7-1.1-5.8-1.8l-1,0.2l0.6,0.5l1.6,0.6c1.2,0.7,1.4,1.4,1.1,2.8c-0.3,1.4-0.6,2.5-2.4,8.6l-2,7.2c-1.1,3.7-2,6.9-2.7,8.5
	c-0.5,1.2-0.9,2-1.8,2l-1.5-0.3l-0.7,0.1l0.6,0.7C309.7,39.3,312.2,39.9,313.2,40.2z M215.8,5c1.4,0.1,1.8,0.9,2,2.2
	c0.2,1.3,0.4,2.5,1,8.9l0.6,6c0.7,6.1,2.6,9.1,5,10.8l0,0.1c2.1,1.5,4.6,2.2,7.2,2.1c0.9,0,1.8-0.1,2.5-0.1c3.2-0.2,6.2-1.7,8.4-4
	c3.2-3.4,3.2-8.3,2.7-13l-0.5-4.5c-0.6-6.4-0.7-7.5-0.8-8.9C243.7,3,244,2.3,245,2l1.2-0.3l0.8-0.5L246,1c-1.6,0.1-4.3,0.5-4.8,0.6
	c0,0-2.7,0.1-4.9,0.3l-0.8,0.5l0.7,0.3h1.6c1.4,0.1,1.9,0.8,2.1,2.2c0.2,1.4,0.3,2.6,1,8.9l0.5,5.3c0.4,4.4,0.7,8.1-1.4,10.6
	c-1.4,1.6-3.4,2.7-5.6,2.9c-1.9,0.3-3.9-0.1-5.4-1.2c-2.2-1.5-3.7-3.9-4.4-10l-0.6-5.8c-0.6-6.3-0.8-7.4-0.8-8.9s0.2-2.2,1.3-2.6
	l1.3-0.2l0.6-0.5l-1-0.2c-1.5,0.1-4.2,0.5-5.2,0.6c-1.1,0.1-3.9,0.3-6.1,0.5l-0.8,0.5l0.7,0.3H215.8z M470.1,122.2
	c-1.1,0.8-2.2,1.3-7.7,4.5l-5.4,3c-5.3,3-7.3,6-7.9,8.8c-1,4,0.9,7.6,2,9.5c1.4,2.9,3.9,5.1,6.9,6.3h0c1.1,0.4,2.2,0.5,3.3,0.5
	c3.4,0,6.7-1.6,9.8-3.3l4-2.2c5.5-3.2,6.5-3.5,7.8-4.3c1.3-0.7,2.1-0.7,2.9,0.2l0.7,1l0.7,0.4l-0.1-0.9c-0.8-1.5-2.2-3.7-2.5-4.2
	c0,0-1.2-2.4-2.3-4.3l-0.7-0.6v0.8l0.6,1.4c0.4,1.4,0,2.1-1.2,2.8c-1.2,0.7-2.2,1.3-7.7,4.5l-4.7,2.6c-3.8,2.1-7.1,3.9-10.3,3
	c-2.1-0.7-3.8-2.1-4.9-4c-1-1.6-1.4-3.6-1-5.4c0.4-2.7,2.1-4.9,7.4-7.9l5.2-3c5.6-3.1,6.5-3.7,7.8-4.3c1.3-0.6,2.1-0.7,2.9,0.2
	l0.7,1l0.6,0.4l-0.1-1c-0.7-1.3-2.2-3.6-2.6-4.5c-0.7-1.1-1.9-3.5-3-5.5l-0.8-0.6l0.1,0.8l0.7,1.5
	C471.8,120.8,471.4,121.4,470.1,122.2z M42.8,118.5c0.7-0.7,1.5-0.6,2.8,0.1c1.1,0.7,2.1,1.4,7.4,5l6.2,4.1c2.6,1.6,5.1,3.4,7.5,5.3
	l1.1,2.2l-0.7,1.4l0,0l-0.1,0.7l0.8-0.5c1-1.4,2.3-3.6,2.9-4.5c0.6-0.9,2.2-3.1,3.8-5.4l0.1-0.9l-0.7,0.3l-1.3,1.8
	c-0.9,0.9-1.7,0.7-2.7,0.2c-1.6-0.9-4.4-2.7-7.7-5l-6.3-4.2c-5.3-3.5-6.1-4.1-7.3-5c-1.2-0.9-1.6-1.6-1.2-2.7l0.6-1.1l0.1-0.8
	l-0.8,0.5c-0.9,1.4-2.2,3.6-2.8,4.4c-0.7,1.1-2.3,3.2-3.2,4.6l-0.3,1l0.8-0.3L42.8,118.5z M131.9,33.8c0.9-0.3,1.6,0.2,2.4,1.4
	c0.6,1.1,1.2,2.2,4.3,7.8l3.5,6.4c1.5,2.7,2.9,5.4,4.2,8.2v2.4L145,61l-0.4,0.5l0.9-0.1c1.5-0.8,3.7-2.1,4.6-2.6
	c0.9-0.5,3.4-1.7,5.8-3l0.5-0.8h-0.8l-2,1c-1.2,0.4-1.8-0.2-2.5-1.1c-1-1.5-2.6-4.4-4.5-8l-3.5-6.5c-3-5.6-3.5-6.5-4.1-7.9
	c-0.6-1.4-0.7-2.1,0.2-2.9l1-0.7l0.5-0.7l-0.9,0.1c-1.5,0.8-3.6,2.1-4.5,2.6c-1.1,0.6-3.5,1.8-4.9,2.6l-0.7,0.7l0.8,0.1L131.9,33.8z
	 M54.7,101.4c1.1-0.9,1.9-0.7,3,0.1c1.1,0.8,2,1.6,7,5.6l5.8,4.8c2.4,1.8,4.6,3.8,6.7,5.9l1,2.4l-0.8,1.3l0,0l-0.2,0.8l0.9-0.4
	c1.1-1.3,2.7-3.5,3.3-4.3c1.6-1.9,3.6-3.8,7.6-8.8c1-1.2,1.3-1.5,0.6-2.5l-3.3-3.4l-0.8-0.2l0.2,0.7c1.2,1.4,1.5,2.3,1.2,3.5
	c-0.5,1.3-1.2,2.4-2.1,3.4c-2.7,3.4-3.6,3.5-6,1.7c-0.9-0.7-3.9-3.3-5-4.2l-2.6-2.1l-0.2-0.5l4-4.5c1.2-1.1,2-1.1,2.8-0.8l1.3,0.9
	l0.6-0.1l-0.4-0.8l-2.1-1.9c-0.8-0.7-1.5-1.5-2.2-2.3h-0.4v0.9l-0.9,2l-4.2,5.3h-0.6l-8.2-6.8l-0.1-0.5l3.9-4.5
	c1.6-1.5,2.3-1.5,3-1.3l1.4,0.8l0.7,0.1L69.4,91l-2-2c-1.5-1.3-1.7-1.8-2-2L65,86.9l-0.3,0.7l-1,1.5c-0.5,0.7-5.8,7.1-6.6,8.2
	c-0.8,0.9-2.6,2.9-4,4.6l-0.3,1l0.7-0.3L54.7,101.4z M157.5,55L157.5,55l0.3-0.5l1.2-0.6c1.8-0.9,2-2.6,2-4.9V20.5
	c0-1.3,0.1-1.8,0.5-2l1.5,0.9c1.8,1.8,14.4,15.3,19.3,20.2c2.9,3,4.3,3,5.1,2.9L189,42l0.6,0.1c0,0.1,0,0.1,0,0.2L190,42l1.5-0.5
	c0.8-0.4,0.7-1.4,0.6-2.6c-0.2-1.8-1.1-5-2-8.7l-1.7-7.2c-1.6-6.2-1.9-7.3-2.3-8.6c-0.4-1.3-1-2-2.4-1.9l-1.6,0.2l-0.8-0.2l0.8-0.6
	c2.2-0.5,4.8-1,5.6-1.3c1.4-0.3,4.5-1.2,5.8-1.5c2.6-0.9,5.3-0.9,7.9-0.2c2.1,0.9,3.6,2.7,4.1,5c0.8,3,0.2,6.1-3.1,10.5
	c4.7,3.7,8.5,6.5,11.6,8.5c2.9,1.8,4.7,1.7,5.3,1.6l1.2-0.1l0.6,0.2l-0.7,0.6l-3.9,1c-1.5,0.5-3,0.6-4.5,0.3c-2-0.5-4.1-2-7.1-4.5
	c-2.2-1.9-4.8-4.2-5.5-4.7l-0.8-0.1L195,28l-0.2,0.4l0.1,0.6c0.7,2.9,1.5,5.9,2.5,8.7c0.4,1.1,0.9,2,2.2,1.8l2-0.3l0.6,0.2l-0.7,0.6
	c-2.4,0.6-5.4,1.3-6,1.4c-0.8,0.2-3.4,1-5,1.4l-0.9-0.2l-0.1,0c0,0,0,0,0,0c-0.4,0.3-0.9,0.5-1.4,0.7c-1.4,0.6-4.3,1.8-7.4,2.9
	l-1.3,0.2l0.4-0.6v-1l-6.4-7.1l-0.6-0.1L164,41l-0.2,0.4l0.1,6.4c0,0.9,0.1,1.8,0.4,2.7c0.3,0.7,0.8,1.1,2.1,0.6l0.5-0.3l0.8,0.1
	l-0.5,0.7c-1.3,0.5-3.1,1-4.3,1.5c-0.4,0.2-2.2,1-4.1,1.8l-0.7,0.1L158,55L157.5,55z M193.9,25l0.6,0.7c1.1,0,2.1-0.1,3.2-0.4
	c1.7-0.4,2.2-0.7,2.8-1.4c1-1.3,1.7-3.5,0.9-6.8c-1.2-4.8-4.3-6.1-6.7-6.1c-0.5,0-1,0.1-1.5,0.2l-0.1,0c-0.7,0.2-1.5,0.4-2.2,0.7
	l-0.2,0.7L193.9,25z M189.4,42.5L189.4,42.5c0.1,0,0.1-0.1,0.1-0.1L189.4,42.5z M163.4,27.4l0.3,11l0.2,0.3l7.2-2.9l0.1-0.4
	l-7.3-8.2l-0.4-0.3L163.4,27.4L163.4,27.4z M312,496.4l-0.4,0.9l-1,3c-1.3,2.2-3.5,3-7.2,3.7c-5.6,0.9-13.9-2.8-15.6-12.6
	c-0.7-4.1-0.6-8.1,2-11.5c1.6-2,3.6-3.2,7.4-3.9c3.8-0.7,7.2-0.1,8.8,1.1c1.2,0.9,2,2.1,2.3,3.6l0.6,0.9l0.3-1.1
	c0-0.8-0.4-3-0.6-4.5s-0.1-2-0.2-2.4l-0.7-0.4c-1.3,0.1-2.7,0-4.3,0c-2.1,0.1-4.1,0.3-6.1,0.7c-6.1,1-9.8,3.4-12.4,6.5
	c-2.6,3.5-3.7,8-3,12.3c0.6,4.7,3.3,8.8,7.2,11.4l0,0c3,1.7,6.4,2.6,9.9,2.6c1.7,0,3.4-0.2,5.1-0.5c2.5-0.3,5-1.1,7.3-2.2l0.9-1.4
	c0.1-1.9,0.1-3.8,0-5.8L312,496.4z M435.3,437.6c0.5,1.2,0.6,1.8,0.3,2.1l-1.7-0.3l0,0c-2.4-0.9-19.2-8.5-25.6-11.2
	c-3.9-1.7-5.1-1.2-5.8-0.7l-1.4,1.1l-0.7,0.1c-0.2-0.2,0-0.5,1.1-1.6c1.1-1.1,3.3-3.3,5.7-5.5l1.2-0.7l-0.2,0.7l0.4,1l8.7,4.1
	l0.5-0.1l6.8-6.5v-0.5l-2.6-6c-0.3-0.8-0.7-1.6-1.3-2.3l-2.2,0.2l-0.4,0.5l-0.7,0.2l0.2-0.8l3.3-3.1c0.3-0.3,1.9-2,3.5-3.6l0.9-0.3
	l-0.1,0.7l-0.9,0.9c-1.2,1.6-0.8,3.2,0.1,5.3L435.3,437.6z M430.3,432.7l-0.1-0.5l-4.5-10.1l-0.3-0.1l-5.6,5.4h0v0.3l10,4.8
	L430.3,432.7z M461.5,401.8c-1.5-9.1-10-15.4-19.2-13.9c-5,1-8.9,4.1-12.5,8.6c-1.6,2.2-3.4,4.8-3.9,6.6l0.3,1.6
	c1.2,1.5,2.5,2.9,3.9,4.2l0.8,0.1l-0.4-1c-0.6-0.8-1.1-1.8-1.3-2.8c-0.5-2.6,0.6-4.6,2.9-7.6c3.5-4.5,12-7.4,20-1.3
	c3.2,2.5,5.8,5.5,6.2,9.7c0.2,2.5-0.5,5-2.8,7.8c-2.4,3.1-5.3,5-7.3,5.2c-1.4,0.2-2.9-0.2-4.1-1.1l-1-0.2l0.5,1
	c0.6,0.6,2.5,2,3.5,2.9l0,0c1.2,1,1.5,1.4,1.8,1.6l0.8-0.2c0.9-1,2-1.8,3.1-2.9c1.5-1.4,2.9-3,4.1-4.7c3.8-4.9,5-9.1,4.6-13.3
	C461.6,402.1,461.6,401.9,461.5,401.8z M401.9,86.9c-1.9-1.6-4.2-3.7-4.6-4.2s-2.7-2.1-4-3.3l-0.4-0.8l0.8,0.2l1.3,0.8l2.4-0.9
	c1.4-1.3,3.5-3.8,6-6.7l4.9-5.5c4.2-4.9,5-5.9,5.8-6.8c0.9-1.2,1.1-1.9,0.2-3.1l-1.1-1.2l-0.4-0.7l1,0.3c1.7,1.5,3.7,3.3,4.3,3.9
	c1.1,1,3.7,3,4.7,3.8c2,1.8,4,3.8,4.6,6.4c0.5,2.2-0.1,4.5-1.6,6.2c-2.1,2.4-4.9,3.8-10.4,3.6c-0.2,6-0.5,10.8-0.3,14.4
	c0.2,3.4,1.3,4.8,1.7,5.3l0.8,0.9l0.2,0.6l-0.9-0.2h0.1l-3.1-2.7c-1.2-0.9-2.2-2.2-2.9-3.6c-0.7-1.9-0.6-4.5-0.3-8.4
	c0.2-2.9,0.7-6.3,0.6-7.1l-0.3-0.7l-2.8-2.5h-0.5l-0.4,0.5c-2,2.2-3.9,4.5-5.7,6.9c-0.8,1-1.2,1.9-0.3,2.9l1.4,1.5l0.2,0.6
	L401.9,86.9z M409.6,73l2.2,2.4c1.3,1.2,1.8,1.4,2.7,1.5c1.6,0.1,3.8-0.6,6-3.2c3.9-4.6,2.1-8.4,0.2-10.1l-1.9-1.3l-0.7,0.2h0
	l-8.3,9.7L409.6,73z M393.2,78.7c-0.6-0.2-1.2-0.4-1.7-0.8v0c-1.3-0.9-3.9-2.6-6.6-4.5l-0.9-1h0.7l0.9-0.6l2.1-9.3l-0.2-0.5
	l-7.9-5.1L379,57l-5.2,3.8l-2,1.8c-0.4,0.7-0.4,1.3,0.7,2.1l0.5,0.3l0.4,0.7l-0.9-0.1c-1.1-0.7-2.6-1.8-3.6-2.6
	c-0.4-0.2-2.5-1.4-4.3-2.6l-0.5-0.8h0.6l1.2,0.6c1.8,0.9,3.2,0.1,5-1.2l23.4-16.3c1.1-0.8,1.6-1,1.9-0.8c0.3,0.2,0.4,0.7,0.2,1.8
	c-0.4,2.5-4.3,20.5-5.5,27.3c-0.8,4.1-0.1,5.3,0.6,6l1.5,1l0.3,0.6C393.3,78.7,393.3,78.7,393.2,78.7z M388.2,59.8l2.5-10.8l0.1-0.5
	l-0.5,0.2v0l-8.9,6.5v0.4l6.5,4.3L388.2,59.8z M385.5,473.9c-1.2,0.4-1.8-0.1-2.5-1c-1.1-1.5-2.7-4.4-4.8-7.9l-3.7-6.4
	c-3.2-5.5-3.7-6.5-4.4-7.8c-0.7-1.3-0.7-2.1,0.2-2.9l1-0.7l0.4-0.7l-1,0.1c-1.3,0.8-3.5,2.2-4.3,2.7c-1.1,0.6-3.5,1.8-4.9,2.6
	l-0.7,0.8l0.8,0.1l1.4-0.7c0.9-0.2,1.8,0.3,2.5,1.4c0.7,1.1,1.3,2.2,4.5,7.7l3.7,6.4c1.6,2.6,3.1,5.3,4.3,8.1c0.6,1.1,0.7,1.9,0,2.4
	l-1.2,0.9h0l-0.4,0.7l0.9-0.1c1.5-0.8,3.8-2.3,4.6-2.8c1-0.5,3.4-1.7,5.8-3.1l0.5-0.8h-0.7L385.5,473.9z M508.4,301.2
	c-1.6,9.1-7.3,14.3-15.2,14.3c-1.1,0-2.1-0.1-3.2-0.3v0c-9.5-1.7-15.9-9.7-14.1-20.2c2.1-12,11.9-15.2,19.2-13.9
	C502.2,282.3,510.6,288.7,508.4,301.2z M495.4,287.1c-1.2-0.2-2.5-0.3-3.8-0.3c-7,0-12.8,3.6-14,10.3l0,0c-0.5,2.9-0.3,9.9,11.7,12
	c9.3,1.7,16-2.7,17.2-9.5C507.5,294.8,505.7,288.9,495.4,287.1z M371,482.2c-1,0.2-2.1-0.1-3-0.6c-1.5-0.8-12.4-8.5-14.5-9.9
	l2.4-11.9c0.4-2.2,0.7-3.7,1.5-4.3l1.3-0.8l0.5-0.7h-0.9c-1.3,0.5-2.5,1.1-3.7,1.8c-0.8,0.3-2.5,0.9-4,1.6l-0.7,0.7l0.7,0.1l1.3-0.4
	l0.9,0.4l0.2,1.7c0,1.3-1.3,8.2-1.6,10.4c-2.7-1.9-5.7-4-8.7-6.3l-0.9-0.9l0.2-0.9l1-0.6l0.4-0.6h-0.9c-1.4,0.6-3.5,1.7-4.1,1.9
	c-1.8,0.8-5,2.1-6,2.5l-0.6,0.7l0.5,0.2l1.8-0.4c1.6-0.1,3.2,0.4,4.4,1.4l11.5,8.1l-2.8,13.8c-0.5,2.5-0.9,3.5-1.9,4.4l-1.3,0.8
	l-0.4,0.6l0.1,0l0.7,0.1l0.7-0.3l3.2-1.6l3.7-1.5l0.7-0.3l0.6-0.7l-0.6-0.1l-0.9,0.3l-1-0.3l-0.2-1.9l1.6-11.8
	c3.1,2.2,7,4.9,10.8,7.8l0.3,1l-0.4,0.6c0.2,0.3,0.5,0.2,1.5-0.2c3-1.2,6.1-2.6,7-3l1.1-0.5l0.6-0.7l-0.6-0.1L371,482.2z
	 M476.2,384.7c-0.6,0.6-1.4,0.7-2.7,0c-1.3-0.7-2.3-1.3-7.7-4.7l-6.3-3.8c-3.6-2.2-6.3-3.9-7.8-5l-1.1-2.2l0.6-1.4l0.1-0.8l-0.8,0.5
	c-0.9,1.5-2.2,3.9-2.7,4.6c-0.6,1-2.1,3.2-3.5,5.6l-0.1,0.9l0.6-0.4l1.3-1.7c0.8-1,1.6-0.9,2.7-0.4c1.6,0.8,4.5,2.5,7.9,4.7l6.4,3.9
	c5.5,3.3,6.3,3.8,7.5,4.7c1.2,0.9,1.7,1.5,1.3,2.6l-0.6,1.2h0v0.8l0.8-0.6c0.8-1.4,2-3.6,2.6-4.5c0.6-1.1,2.1-3.3,3-4.7l0.2-1
	l-0.7,0.3L476.2,384.7z M512,249.9c-0.1,2.2-0.3,4.8-0.3,5.8v5.9c-0.1,2.7-0.4,5.5-2,7.7c-1.4,1.8-3.6,2.8-5.8,2.8
	c-3.2-0.1-5.9-1.5-9.3-5.8c-4.9,3.6-8.6,6.4-11.3,8.8c-2.5,2.4-2.9,4.1-3,4.6L480,281l-0.3,0.5l-0.4-0.8l0,0l0.1-4
	c0-2.4,0.2-3.5,0.9-4.6c1-1.8,3-3.3,6.3-5.6c2.4-1.6,5.3-3.5,5.9-4l0.3-0.8l0.2-3.7l-0.3-0.3l-0.6-0.1c-4,0-7.2-0.1-9,0.1
	c-1.3,0.1-2.2,0.3-2.4,1.6l-0.2,2l-0.4,0.5l-0.4-0.8c0.1-2.5,0.3-5.5,0.3-6.2s-0.1-3.5,0-5.2l0.4-0.8l0.3,0.7l0.2,1.5
	c0.1,0.9,1.1,1.1,2.3,1.3c3,0.3,5.9,0.4,8.9,0.4l7.4,0.2c6.4,0.1,7.6,0.2,9,0.1c1.4-0.1,2.1-0.4,2.4-1.8l0.2-1.6l0.4-0.8L512,249.9z
	 M509.6,258.5l-0.6-0.4l-12.8-0.3l-0.8,0.4c-0.3,1-0.5,2.1-0.5,3.2c-0.2,1.1,0,2.2,0.7,3.1c0.9,1.3,2.8,2.5,6.2,2.6
	c6,0.2,7.7-3.8,7.8-6.2C509.7,260.1,509.7,259.3,509.6,258.5z M489.2,349.8l-0.8,0.1l0.2,0.7l1.1,1.2c0.6,1,0.3,2-0.7,4.3l-2.5,5.7
	l-15.7-7.3c-2.7-1.2-5.4-2.6-8-4.1c-1.1-0.6-1.8-1.2-1.6-2.1l0.5-1.4v-0.8l-0.8,0.6c-0.7,1.5-1.7,4-2.1,4.9c-0.5,1.1-1.8,3.5-3,5.9
	v0.9l0.6-0.5l1.1-1.9c0.7-1,1.7-0.9,2.8-0.5c2.8,1.1,5.5,2.3,8.2,3.7l15.7,7.3l-2.4,4.8c-1.6,3.4-3.2,4-4.2,3.6l-0.5-0.2l-1,0.1
	l0.5,0.6l4.4,2.2h0l1,0.1c0.3-1.3,0.7-2.6,1.3-3.9l7.1-15.2c0.6-1.3,1.3-2.5,2-3.7l1.2-1.5l-0.5-0.8L489.2,349.8z M499.6,337.3
	c-0.2,0.4-0.5,0.5-1.6,0.6c-2.5,0.2-21,1.2-27.9,1.7c-4.1,0.4-5,1.4-5.6,2.1l-0.7,1.7l-0.5,0.4c-0.3-0.1-0.3-0.5,0.2-2l-0.1,0
	c0.5-1.5,1.5-4.4,2.7-7.5l0.7-1.1l0.2,0.7l0.8,0.7l9.5-0.4l0.4-0.3l3-8.9l-0.2-0.5l-5-4.1l-2.3-1.4c-0.7-0.3-1.4-0.1-1.8,1.1
	l-0.2,0.7l-0.5,0.5l-0.2-0.9c0.4-1.3,1.1-3,1.6-4.1c0.1-0.5,0.7-2.7,1.4-4.8l0.7-0.7l0.2,0.6l-0.4,1.3c-0.4,2,0.8,3.2,2.5,4.7
	l21.8,18.4C499.4,336.5,499.8,336.9,499.6,337.3z M491.8,333.7l-0.3-0.4l-8.6-6.9h-0.3l-2.5,7.4l0.2,0.3l11.1-0.3L491.8,333.7z
	 M170.3,461.7l-0.1-1.5l-1.3,0.4L148,477.2l0.1-26.5c0-1.3-0.1-1.6-0.4-1.7l-1.1,0.7l-15.9,22.8c-0.8,1.2-1.8,2.5-3,2.2l-1.2-0.4
	h-0.8l0.5,0.7c1.2,0.6,3.1,1.4,3.8,1.8c0.6,0.3,2.3,1.3,3.9,2.1h1.1l-0.4-0.6l-1.5-0.9l-0.6-1.8l1-1.8l9.4-14.1l0.1,0.1
	c0,3.5-0.1,9.3-0.2,10.3c0,1.3,0.1,8.5,0.2,10.8c0,1.4,0.1,2.3,0.4,2.5c0.3,0.2,0.7-0.1,2.4-1.4l16.8-13.2l0.1,0.1l-5.8,17.8
	c-0.4,1.1-0.8,1.5-1,1.5l-0.7,0.2l0.9,1c1.5,0.8,6.6,3.5,7.6,4v0l1.2,0.1l-0.5-0.6l-2.2-1.5c-0.9-0.9-0.8-2.2,0-4.8L170.3,461.7z
	 M207.3,478c1.8,3.6,2.2,7.7,1,11.5c-1.8,7.3-8.4,12.3-15.8,12c-2.3,0-4.6-0.4-6.8-1l0,0c-3-0.9-6.5-2.4-8.5-3
	c-1-0.3-3.6-0.9-5.2-1.3l-0.7-0.7l0.7-0.1l1.6,0.2c0.8,0.1,1.3-0.7,1.8-1.9c0.7-1.6,1.6-4.9,2.7-8.6l2-7.1c1.8-6.2,2.1-7.2,2.4-8.6
	c0.3-1.4,0.2-2.1-1.1-2.8l-1.6-0.6l-0.6-0.6l1.1-0.1c2.1,0.7,4.7,1.5,5.7,1.8c1.3,0.4,3.9,1,6.3,1.7
	C197.4,470.2,204.1,472.1,207.3,478z M201.5,477.9c-2.7-4.6-7.1-6.3-10.3-7.3l-2.8-0.4l-0.7,0.7c-0.4,1.3-1.5,4.8-2.4,8l-1.4,5.2
	c-1.3,4.3-2.1,7.4-2.3,8.2c-0.3,1-0.7,2.7-0.4,3.2c0.3,1,1.6,2.3,4.8,3.2c4.2,1.2,7.2,1.2,10.2-0.3c3.3-1.5,5.1-5,6.4-9.1
	C203.7,485.4,203.3,481.3,201.5,477.9z M62.4,376.9l-28.3,3.5c-0.4,0.1-0.8,0.1-1.2,0.1c-0.4,0-0.6-0.1-0.8-0.3l0,0l0.6-1.6
	c1.6-2,13.4-16.2,17.7-21.7c2.6-3.2,2.5-4.6,2.2-5.5l-0.7-1.6l0.1-0.4l-0.3-0.3l-0.7-1.3c-0.4-0.8-1.4-0.6-2.6-0.4
	c-1.7,0.4-4.9,1.6-8.5,3l-6.9,2.6c-6,2.2-7.1,2.6-8.3,3.2c-1.4,0.5-1.9,1.1-1.7,2.5l0.5,1.6l-0.1,0.8l-0.7-0.7l0-0.1
	c-0.8-2.1-1.6-4.7-2-5.8c-0.4-1.1-1.5-3.7-2.4-6c-1.9-5-4.3-11.6-1.4-17.5c1.8-3.5,4.9-6.3,8.6-7.5c4.1-1.6,8.6-1.5,12.7,0.2
	c2.5,1.2,6.8,4.3,9.5,11.5c1.1,3,2,6.6,2.7,8.6c0.3,0.9,1.4,3.4,2,5l-0.1,0.5c0.2,0.1,0.5,0.5,1,1.4c0.7,1.4,2.2,4.1,3.8,7l0.3,1.3
	l-0.6-0.3l-1.1,0.1l-6.1,7.4l-0.1,0.5l4.6,8.3l0.5,0.1l6.4-0.9c0.9,0,1.8-0.3,2.6-0.7c0.7-0.3,1-0.9,0.3-2.1l-0.3-0.6v-0.7l0.7,0.4
	c0.7,1.2,1.5,2.9,2.1,4.1c0.2,0.4,1.5,2.4,2.5,4.3l0.1,0.9l-0.6-0.3l-0.7-1.1C66.3,376.6,64.7,376.6,62.4,376.9z M45.8,335.8
	c-1.5-4.1-3.3-6.5-6.1-8c-1.4-0.7-2.9-1.1-4.5-1.1c-2.3,0.1-4.5,0.5-6.6,1.4h0.1c-5.1,1.9-7.5,5.1-8.5,7.4
	c-1.6,4.1-1.5,8.7,0.2,12.7l1.2,2.5l1,0.2c1.4-0.4,4.9-1.7,7.9-2.9l5-1.9c4.2-1.5,7.2-2.7,7.9-3l2.9-1.6
	C46.7,340.8,47,339,45.8,335.8z M52.2,349.5l-0.2-0.2l0,0L52.2,349.5L52.2,349.5z M51.7,375l-3.7-6.8l-0.3-0.1l-7.3,8.3l0,0
	l-0.2,0.4l0.5,0.1l10.9-1.7L51.7,375z M80.2,400.4c0.4-5.1-1.5-9.7-5-14.4c-1.4-2.1-3.3-4-5.4-5.4l-1.7-0.2c-1.7,0.8-3.4,1.7-5,2.7
	l-0.3,0.7l1-0.1c1-0.4,2-0.6,3.1-0.5c2.5,0.2,4.3,1.7,6.5,4.8c3.4,4.5,3.9,13.6-4.1,19.6c-3.3,2.5-6.9,4.3-11,3.5
	c-2.5-0.5-4.7-1.9-6.9-4.8c-2.3-3.2-3.4-6.4-3-8.4c0.2-1.4,1-2.7,2.1-3.7l0.5-0.9l-1.1,0.2c-0.7,0.4-2.6,1.9-3.7,2.6
	c-1.3,0.9-1.8,1.1-2.1,1.3v0.8c0.7,1.1,1.2,2.4,2,3.8c1,1.8,2.1,3.5,3.4,5.2c3.8,5,7.5,7.2,11.6,8v0c0.9,0.2,1.7,0.2,2.6,0.3
	c3.5,0,6.8-1.2,9.6-3.3C77.3,409.4,79.8,405.1,80.2,400.4z M97.8,61.8c-1.6-1.8-1.9-2.7-1.3-3.8l0.9-0.9l0.3-0.8l-1,0.4
	c-1.5,1.4-2.7,2.5-3,2.9c-0.7,0.6-2.3,1.8-3.9,3.3L89.3,64l0.8-0.2l1.8-1.3c1.1-0.4,1.9-0.1,3.7,1.8l13.1,13.8l-0.2,0.1
	c-1,0-9.2-0.7-13.3-0.9c-8.7-0.3-18-1.1-18.8-1.2c-1,0-1.7-0.2-2,0.1l0.5,1.5l16.5,18.6c2.5,2.8,3.2,3.8,2.6,4.8l-1.3,1.5v0
	l-0.2,0.7l0.9-0.3c1.7-1.5,3.1-3,3.4-3.2c0.6-0.6,1.9-1.6,3.9-3.5l0.5-1l-0.8,0.3l-1.8,1.3c-0.9,0.3-2-0.1-4.3-2.5L82,81.7l0.1-0.1
	c1.1,0.1,8.1,0.8,14.6,1.1c6.1,0.2,13.9,0.7,17.5,0.8l1.7-0.3l-0.5-1.4L97.8,61.8z M109.3,425.4l0.3,0.9l-0.6-0.1l-1-0.9
	c-1.6-1.2-3.2-0.8-5.3,0.1l-26.2,11.1c-0.5,0.3-1.1,0.4-1.7,0.5c-0.1,0-0.3-0.1-0.4-0.2l0.3-1.8c0.9-2.3,8.4-19.2,11.1-25.7
	c1.5-3.8,1.1-5,0.6-5.8l-1.1-1.4l-0.2-0.6c0.3-0.3,0.6-0.1,1.7,1.1c1.1,1.2,3.3,3.3,5.5,5.6l0.7,1.2l-0.7-0.2l-1,0.5l-4,8.6l0.1,0.5
	l6.6,6.7h0.5l5.8-2.6c0.8-0.3,1.6-0.8,2.3-1.4l-0.3-2.1l-0.4-0.5l-0.2-0.7l0.8,0.2l3.1,3.3C106.1,422.3,107.9,423.8,109.3,425.4z
	 M92.1,426.6l-5.5-5.5h-0.3l-4.8,10.1h-0.1l-0.1,0.4l0.4-0.1l10.2-4.6L92.1,426.6z M128.6,72.1l-1.2,1l0,0l-0.3,0.7l0.9-0.2
	c1.4-0.9,3.6-2.5,4.4-3.1c1-0.6,3.3-2,5.5-3.6l0.5-0.8l-0.8,0.1l-1.9,1.1c-1.2,0.6-1.9-0.1-2.7-1c-1.1-1.3-3-4.2-5.2-7.3l-9.6-14.5
	l4.5-2.8c3.2-2.1,4.8-1.7,5.5-0.8l0.3,0.3l0.9,0.5l-0.1-0.8l-2.5-4.2l-0.8-0.5c-1,0.9-2.1,1.8-3.2,2.6l-13.9,9.3
	c-1.1,0.7-2.5,1.6-3.6,2.2l-1.8,0.6v0.9l2,4.6l0.7,0.3l0.1-0.7l-0.3-1.6c0.1-1.1,0.8-1.9,2.8-3.3l5.2-3.7l9.6,14.3
	c1.7,2.5,3.3,5,4.8,7.6C128.9,70.6,129.2,71.5,128.6,72.1z M239.7,477.6c-2-0.5-4-0.9-6.1-1.1c-6.2-0.8-10.4,0.4-13.8,2.8
	c-3.5,2.6-5.7,6.6-6.2,10.9c-0.5,4.1,0,9,3.7,13c3.5,3.8,8.1,5.6,13.9,6.3l0,0c1.3,0.1,2.8,0.2,4.1,0.2c1.2,0,2.3-0.1,3.5-0.3
	l1.2-1.1c0.7-1.8,1.2-3.6,1.6-5.5l-0.3-0.7l-0.6,0.8l-1.8,2.6c-1.9,1.8-4.2,1.9-7.9,1.5c-5.7-0.7-12.6-6.5-11.4-16.5
	c0.5-4.1,1.8-7.9,5.2-10.4c2-1.4,4.6-2.1,8.1-1.6c3.9,0.4,7,2,8.2,3.6c0.8,1.2,1.3,2.6,1.2,4.1l0.3,1l0.6-0.9
	c0.2-0.9,0.5-3.2,0.7-4.6c0.2-0.7,0.4-1.5,0.5-2.3l-0.6-0.6C242.6,478.6,241.3,478,239.7,477.6z M339.7,489.4l-0.2,0.8l-0.3,2.8
	c-0.7,1.4-2.3,1.9-4.5,2.5c-3.1,1-4.3,1-5.2,0.7c-1-0.5-1.9-3.3-3.5-8.5l-2.1-7c-1.9-6.2-2.3-7.3-2.6-8.6s-0.2-2.2,0.8-2.8l1.6-0.6
	l0.6-0.6l-1-0.1c-1.6,0.5-4.3,1.4-5.4,1.8c-1.1,0.4-3.7,1-5.5,1.6l-0.8,0.6l0.8,0.2l1.4-0.3c1.4-0.1,2.1,0.5,2.5,1.8
	c0.4,1.3,0.8,2.4,2.7,8.5l2.1,7.1c1.2,3.6,2.1,6.9,2.5,8.6c0.2,1.3,0.2,2.2-0.5,2.6l-1.5,0.6l-0.5,0.6l0,0l0.9,0.1
	c1.7-0.5,4.2-1.4,5.1-1.7c3.3-1,6-1.5,11.9-3.3c2.1-0.6,2.2-0.9,2.2-1.9c-0.1-1.6-0.4-3.3-0.8-4.8L339.7,489.4z M276.4,502.7
	l-1.3,2.9c-1.7,2-4,2.4-7.7,2.5c-5.7,0.2-13.4-4.7-13.6-14.7c-0.1-4.1,0.6-8.1,3.6-11c1.8-1.8,4.2-2.8,7.8-2.9c3.9,0,7.2,1,8.6,2.5
	c1,1,1.7,2.4,1.8,3.9l0.4,0.9l0.5-1c0.1-0.9,0.1-3.1,0.1-4.6s0.1-2,0.1-2.4l-0.7-0.5c-1.2-0.1-2.6-0.4-4.2-0.6
	c-2-0.2-4.1-0.3-6.2-0.3c-6.3,0.2-10.2,2-13.2,4.8c-3.1,3.1-4.8,7.3-4.6,11.7c-0.1,4.7,1.9,9.2,5.4,12.3c3.8,3.1,8.4,4.3,13.9,4.3
	h0.7c2.6,0,5.2-0.4,7.6-1.2l1.1-1.2c0.4-1.9,0.7-3.8,0.8-5.6l-0.4-0.7L276.4,502.7z M267.5,186.6c3,4.7,15.6-2.7,9.9-9.2
	C275,174.8,266.6,185.3,267.5,186.6z M299.7,329.3c-20.8,5.1-38.1-4-55.1-6c-6.5-0.8,6,11.4,8.2,13.7c8.7,9.1,27.3,19.2,38.6,13.3
	c2.8-1.5,5.7-2.3,8.3-3.9c11.2-6.6,21.9-13.9,29.3-24.9c1.9-2.8,8.5-12.9,6.7-15.7v0c-0.8-1.2-2.3-0.7-3.3,0.1
	c-7.7,6.6-15.6,12.7-23.4,18.9C306.3,326.9,303.1,328.5,299.7,329.3z M365.9,254.1c-2.4,6.5,3.2,11.5,3.8,17.5
	c0.3,2.2-0.1,4.4,0.6,6.1c1.8,4.2,1,7.7-0.6,11.8c-1.7,4.4-1.3,6.7-2.2,11.5c-3.2,16.1-14.1,35.6-15.4,50.7c-0.3,3.2-2.3,7-2.8,10.2
	c-2,15.2-0.1,29.1,0,44.2c0,1.7,1.7,9.2-1.8,9.3c-4.2,0.2-8.3,1.4-12,3.3c-8.1,4.6-30-0.4-37.9-2.2c-6.6-1.5-13.7-0.1-20.1,0
	c-8.2,0.1-16.4,0-24.6,0c-5.1,0.1-10.1,0.6-15.1,1.7c-5.7,1-11.1,3.4-15.7,6.9c-1.8,1.5-8.1,1.9-10.3,2.5c-4,1-8.5,0.3-11.1-2.9
	c-5.2-6.4,10.5-4,11.9-4.1c8.3-0.1,16.2-7.7,14.8-16.3c-0.2-1.3-2.7-2.7-3.7-3.4c-4.9-3.6-16-4.1-19.9,1.2c-0.6,0.9-1.1,4.7-1.4,6.4
	c-0.4,2.3-1.2,6.2-4.1,6.3c-6,0.2-20.1,9-21.1-1.6c-0.3-3.3-0.4-5.5-0.5-8.7c-0.3-9.3-1.5-24.6-4.9-33.4c-1.9-5-0.2-14.8-1.1-20.5
	c-3.3-19.1-15.1-35.2-12.1-55.2c1.3-9-0.2-25.7,10.5-29.1c9-2.9,17.5-1.9,27.2-1.9c1.4,0-0.1-23.3-7.1-31.7
	c-10-12.1-9.3-27.1-6.3-41.1c2.2-9.9,6.6-19.3,15-25.7c5.7-4.3,14.6-5.1,17-13c2-6.7,10.3-7.4,10.5-14.8c0.1-3.3,7.4-7.5,1.8-10.5
	c-5-2.6-5.7-3-5.8-8.7c0-2.5-3.1-4.3-3.3-6.8c-0.2-3.5,0.3-10.6,1.7-13.9c0.1-7.4,4.6-7.5,7.5-13.2c2.7-7.7,9.6-4.2,10,2.7
	c2.9,7.3-4.8,15.6,1.7,22c4.8,2.9,2.7,12.5,9.7,9.6c3.4,0,11.6-2.2,14.2-4.6c6.9-7.6-5.4-21.5-11.1-25.7c-4.8-2.5-6.8-9.4,0.1-10
	c3.9,0.2,7.4,2.3,9.6,5.5c3.5,5.8,12.8,10.8,8.3,18.6c-2.7,4.7-0.4,9.9-3.1,14.2c-2.5,4-1.2,4.9-1.8,8.9c-0.1,0.8-1,1.5-1.7,2
	c-2.7,2.1-3.6-7-7.2-5.7c-3.6,1.3-1.3,7.3-1,10.3c0.3,2.7,4.6,1.3,4.9,3.9l0,0c0.5,3.9,4.8,2.6,7.9,2.5c7-0.3,14.1,0.3,20.9,1.7
	c24.5,5,39.7,26.1,61,34.8c4.7,1.9,21.3,16.5,22.3,20.5c2.2,8.4,0.6,16,0.5,24.2c0.1,6.1-1.1,12.2-3.3,17.9
	C367.1,243.1,367.7,249.1,365.9,254.1z M327.5,403.1c-4.5-0.1-8.2-7.1-12.2-7.1l0,0c-6.5-0.1-9.9,6-13.7,10.2
	c-3.5,4.1,8,6.5,10.3,6.5c8.2-0.1,17.1,2.4,23.8-3.6C339.6,405.6,329,403.1,327.5,403.1z M359.5,273.3c-2.6-2.8-7.3-6.2-7.4-10.4
	c0-5.7-1.2-7.3-5.3-11.6c-1.7-1.7-4.7-6.4-7.2-6.5c0,0,0,0,0,0l-0.1,0c0,0,0.1,0,0.1,0c-4.4,0-10.1,3.8-10.1,8.9
	c0,5,0.5,8.4-2.7,12.3c-3.5,4.2-4,6.2-4,11.6c0,4.4-10.1,7.2-13.9,8.1c-12.2,3.1-46.5-8.3-62.8-8.3c-2.9,0-7.3,1.9-10.4,2.2
	c-5.2,0.5,4.1,8.5,5.3,9.4c9.5,6.8,16.7,11.8,28.6,14c3.7,0.7,22.5-0.5,17.1,6.8c-6.6,8.8-36.7,2.8-47,1.3c-7.1-1-13.6-0.1-19.4-4.8
	c-6.5-5.2-15.9-12.8-19.1-21c-2.4-6-15.2-8.8-21-10.7c-5.8-1.9-9.5,0.1-13.2,4.8c-2.4,3.2,0.1,9.4,0.1,13.1c0,7.3-0.9,16.3,1.7,23.2
	c4.6,11.9,7.1,26.7,14.5,37.3c6.4,9.1,7.5,25.6,12.3,35.6c0.8,1.8,1.1,3.5,2.1,5.2c2.8,4.8,5.3,1.6,9.1-0.3
	c9.8-4.8,16.1-0.8,24.8,3.7c5.5,2.8,8.9,5.2,15.4,6.1c5.4,0.7,26.6,3,29.9-3.4c0.8-1.5-2.5-2.7-3.5-2.8c-6.9-0.5-13-4.9-18.9-7.8
	c-4.1-2-7.8-7.4-12.1-9.1c-6.5-2.5-11.5-11.2-16-16.1c-3.8-4.2-6.3-9.8-9-14.8c-1.8-3.3-4.3-6.2-5.8-9.6c-2.6-6.1-2.8-12.8-5.5-18.8
	c-0.5-1.2-1.7-2.2-1.7-3.5c0.2-8,5.4-4,8.3-0.1c4.6,6,7.4,15,12.7,20.4c5.5,5.6,11.2,7.7,17.3,12.4c6.1,4.7,11.9,9.1,18,13.9
	c10.7,8.5,30.5,5.4,41.5-0.4c6.1-3.2,12.8-7.7,12.4,3c0,0.8-0.5,1.3-0.6,2.1c-0.6,7.4-11.7,11.2-10.9,18.4c0.5,5.3,15.7-5.6,17-6.6
	c8.5-6.8,20.4-22,23.4-32.5c4.6-16.1,9.6-33.1,15.5-48.8c0.8-2.2,0-7.1,0-9.5c0-3.2-4.2-5.1-6.2-7.8c-4.9-6.9-12.9-11.1-21-8.4
	c-1.1,0.4-2.8,2.3-4.1,0.8c-2-2.3,5.5-8.9,7.5-8.9c2.7,0,5.4-0.6,7.5,1.5c2.3,2.3,6.5,6,9.8,7.3c3.3,1.3,6.7,8.2,9.1,8.3
	C364.3,282.7,360,273.9,359.5,273.3z M363,211.1c-1.7-14-12.4-24.9-24.1-31.7c-14.4-8.5-29.3-21-44.7-26.6
	c-3.8-1.4-9.3-5.6-13.3-5.6l0,0.1c-6.6,0-13.1-1.4-15.1,6c-1.2,4.5-5,7.3-8.4,9.7c-2.2,1.5-1.4,2.1-1,4.1c0.7,3.5,3.1,7,3.3,10.8
	c0.1,2.1,2,3.7,2.1,5.8c0.1,1.8-4.4,7-6.1,7.1c-2.6,0.1-2.8-5.3-3-7c-0.5-4-2.5-10.1-5.8-12.5c-6.6-4.7-12.5,1.1-19.5-0.9
	c-3.7-1-5.8-2.9-9.7-0.9c-6,3.2-16.2,2.2-20.3,8.4c-4,6-6.2,10-6.2,17.5c-0.1,11.6,5.8,23.3,10.9,33.5c3.4,6.8,11.2,12.1,14,18
	c4.2,9,12.7,18,22,21.3c1.6,0.6,3.4,0,5.1,0c4.5,0,9.5-9.9,13.1-11.8c4.1-2.1,18.1-23.3,12.9-26.5c-5.6-3.4-10.7-7.6-15.3-12.3
	c-1-1.1-5.9-8-5.6-9.4c1.7-7,8.3-13.1,14.5-16c3.6-1.7,5.7-0.5,9.1-1.3c2.5-0.6,11.5-5.4,12.5-5c2.3,1,3,4.3,0.4,5.3
	c-0.6,0.2-8.8,6.3-5.5,6.2c3.1-0.1,16.9-6.4,15.5,0.2c-0.7,2.9-3.5,3.6-5.7,4.8c-2.9,1.7-3.4,6-7.2,6.4c-3.4,0.4-4.3,7.7-8.8,7.7
	c-0.5,0-1,0.2-1.4,0.4c-3.5,2.1,6.6,5.2,8.2,5.9c7.4,3,16.8,5.9,24.9,4.9c1.7-0.2,13-2.1,14.5-0.5c2.6,2.9,2,6.8,2,10.5
	c0,2.3,1.7,12.1,5.4,6.1c2.5-4.2,4.2-4.3,8.7-5.9c4.3-1.5,18.9,11.5,20.7,14.7c0.5,0.9,2.4,4.7,3.7,3.6c2.3-1.9,0.9-18.2,0.9-21
	C361,227,364.1,220.2,363,211.1z" />
	<symbol id="impresum">
		<path fill="currentColor" d="M414,343.4c-52.2-19.9-83.4-40.3-83.4-40.3l-40.2,127.2l-5.5,17.2l-18-51c41.4-57.7-3.1-60.5-10.9-60.5l0,0h-0.1h-0.1
			h-0.1h-0.1l0,0c-7.7,0.1-52.2,2.8-10.8,60.5l-18,51l-5.5-17.2l-40.2-127.2c0,0-31.2,20.4-83.4,40.3
			c-57.5,20.9-53.9,68.2-55.1,156.8h213.1h0.5h213.1C467.9,411.6,471.4,364.3,414,343.4z"/>
		<path fill="currentColor" d="M154.1,240c-5.2,11.1-14,24.9-28.1,31.8c-4.6,2.3-3.6,9.2,1.5,10c15.4,2.4,37.5-0.3,58.1-15.9l0.3,0.2
			c52.3,30.9,120.8,23.8,165.8-21.1c53.4-53.4,53.4-139.9,0-193.2c-53.4-53.4-139.8-53.4-193.2,0c-51.4,51.4-53.3,133.4-5.8,187.1
			L154.1,240z M260.8,64c12.3,0.1,22.1,10.1,22,22.6c-0.1,12.3-10.1,22.4-22.1,22.3c-12.4-0.1-22.4-10.2-22.3-22.6
			C238.5,73.8,248.5,64,260.8,64z M217.5,123.8c0.3-2.4,1.8-4,5-4.6c1.7-0.3,3.4-0.4,5.1-0.4c6.8,0,13.7,0,20.5,0
			c7.2,0,14.5,0,21.7,0c5.2,0,8.3,2.5,8.4,7.7c0.1,4.3-0.6,8.7-1.4,13c-2.8,15.9-5.8,31.8-8.7,47.7c-1,5.3-2,10.5-2.7,15.8
			c-0.3,2.5,0.1,5.2,0.7,7.7c0.8,3.3,3.3,5.2,6.7,4.8c2.8-0.3,5.6-1.3,8.3-2.3c2.2-0.8,4.1-2.3,6.3-3.2c3.2-1.3,5.9,1,5.1,4.3
			c-0.5,1.9-1.7,3.9-3.1,5.3c-8.1,8.2-17.8,13.1-29.4,13.2c-5.4,0.1-10.9-0.1-16.2-0.9c-8.9-1.3-20.2-12.3-18.6-24.1
			c1.1-8,2.3-16.1,3.7-24c2.4-13.9,4.9-27.8,7.3-41.7c0.2-0.9,0.2-1.8,0.2-2.7c0-5.8-1.8-7.9-7.6-8.7c-2.5-0.3-5-0.5-7.3-1.4
			C218.5,128.3,217.3,126,217.5,123.8z"/>
	</symbol>
	<symbol id="toTop">
		<polygon fill="currentColor" points="470.3,389.6 256,175.4 41.7,389.6 6.4,354.3 256,104.7 505.6,354.3 	"/>
	</symbol>
	<path id="autoscroll" fill="currentColor" d="M304.3,92.5c0,26.4-21.4,47.8-47.8,47.8s-47.8-21.4-47.8-47.8c0-26.4,21.4-47.8,47.8-47.8 C282.9,44.7,304.3,66.1,304.3,92.5z M444.7,174.2l-43.8-33.8L255.4,252.7L112.1,142.1l-43.8,33.8l187.1,144.5L444.7,174.2z M444.7,321.1l-43.8-33.8L255.4,399.6L112.1,289l-43.8,33.8l187.1,144.5L444.7,321.1z"/>

	<path id="hr" fill="currentColor" d="M265.2,88.1v20.6h-18.8V88.1H265.2z M302.8,88.1H284v20.6h18.8V88.1z M284,181.9c4.2-3.1,7.8-7,10.7-11.3H284V181.9
		z M246.5,108.7h-18.8v20.6h18.8V108.7z M284,108.7h-18.8v20.6H284V108.7z M208.9,88.1v20.6h18.8V88.1H208.9z M284,170.6V150h18.4v0
		c0.2-1.8,0.3-3.7,0.3-5.6v-15.1H284V150h-18.8v20.6H284z M227.7,150v-20.6h-18.8v15.1c0,1.9,0.1,3.7,0.3,5.5H227.7z M305.6,85.3
		v59.1c0,27.4-22.4,49.7-49.7,49.7h0c-27.4,0-49.7-22.4-49.7-49.7V85.3H305.6z M304.7,86.2h-97.6v58.3c0,26.8,22,48.8,48.8,48.8
		s48.8-22,48.8-48.8V86.2z M227.7,150v20.6h18.8v19.8c2,0.4,4,0.7,6.1,0.8c2.2,0.1,4.4,0.1,6.6,0l0,0c2.1-0.1,4.1-0.4,6.1-0.8v-19.8
		h-18.8V150h18.8v-20.6h-18.8V150H227.7z M227.7,181.9v-11.3H217C219.9,174.9,223.5,178.7,227.7,181.9z M511.8,0v85.3H0V0H511.8z
		M303.8,84.7l11.6-26.4L306.6,44l-14.7,5.4l-10.3-11.8L268,45.4l-12.1-9.9l-12.1,9.9l-13.6-7.8l-10.3,11.8L205.1,44l-8.9,14.3
		l11.6,26.4c14.7-6.6,30.9-10.3,48-10.3C273,74.3,289.2,78,303.8,84.7L303.8,84.7L303.8,84.7C303.8,84.7,303.8,84.7,303.8,84.7z
		M267.9,46.6L267.9,46.6l-2.2,27.2c-3.2-0.3-6.5-0.4-9.8-0.4c-3.3,0-6.5,0.1-9.7,0.4l-0.6-6.8c-7,0.6-13.8,1.7-20.4,3.4l1.7,6.6
		c-6.4,1.6-12.5,3.8-18.4,6.4l-7.9-18l-3.1-7.1l8.2-13.2l14.6,5.4l0,0l0,0l0,0c7.7-2,15.6-3.3,23.7-4l0,0l12-9.8L267.9,46.6z
		M205.1,56.5l2,1.7l-0.5,2.6l0,0.1l0.1,0l2.5-0.8l2,1.7l0.1,0.1l0-0.1l0.5-2.6l2.5-0.8l0.1,0l-0.1-0.1l-2-1.7l0.5-2.6l0-0.1l-0.1,0
		l-2.5,0.8l-2-1.7l-0.1-0.1l0,0.1l-0.5,2.6l-2.5,0.8L205.1,56.5L205.1,56.5z M220.1,66.9c0-1.2-0.3-2.3-0.8-3.3c0,0,0,0,0,0v0
		c0,0,0,0,0,0c0.1,0.4,0.1,0.8,0.1,1.2c0,3.9-3.2,7.2-7.2,7.2c-2.7,0-5-1.5-6.2-3.6c0.6,3.3,3.5,5.8,7,5.8
		C216.9,74,220.1,70.8,220.1,66.9z M245,60.2l-0.6-6.8c-7.7,0.6-15.3,1.9-22.6,3.8l1.7,6.6C230.5,62,237.7,60.8,245,60.2z
		M251.5,56.5c0.3,0.1,0.4,0.3,0.6,0.6c0.1,0.1,0.1,0,0.2,0c0.1-0.3,0.1-0.6,0-0.9c0.3,0.1,0.7,0.1,1.2,0c0.1,0,0-0.1,0-0.1
		c-0.1-0.1-0.1-0.3-0.2-0.5c0-0.2,0-0.3-0.1-0.4c0.3,0.1,0.5,0.1,0.8,0c0-0.4-0.1-0.7-0.3-1.1c0.4,0.1,0.8,0.1,1.1-0.2
		c0.1-0.1,0-0.1,0-0.1c-0.2-0.1-0.3-0.3-0.3-0.6c0-0.3-0.2-0.5-0.5-0.6c0.6-0.3,0.9-0.6,1-1c0-0.1,0-0.1-0.1-0.1c-0.3,0-0.6,0-0.9,0
		c0.5-0.6,0.7-1.2,0.7-1.9c0-0.1-0.1-0.2-0.1-0.1c-0.1,0.1-0.2,0.2-0.4,0.2c-0.3,0-0.5,0.1-0.8,0.2c0,0,0-0.1,0-0.1
		c0.1-0.2,0.1-0.3,0.2-0.5c0.1-0.1,0.1-0.2,0.1-0.3c0.3-0.6,0.6-1.1,0.9-1.7c0.1-0.1-0.1-0.2-0.2-0.1c-0.1,0.1-0.1,0.1-0.2,0.1
		c-0.1,0.1-0.3,0.2-0.5,0.2c-0.3,0.1-0.5,0.2-0.5,0.5c-0.4-0.2-0.7-0.1-1,0.4c0-0.3-0.1-0.6-0.4-0.5c0.1-0.2,0-0.4-0.2-0.4
		c-0.2-0.3-0.6-0.6-0.8-0.9c0,0-0.1-0.1-0.1-0.1l0,0c0,0-0.1,0-0.1,0.1c-0.2,0.3-0.4,0.6-0.7,0.9c-0.2,0.1-0.3,0.2-0.2,0.4
		c-0.3,0-0.4,0.3-0.4,0.6c-0.3-0.5-0.7-0.6-1-0.3c0-0.3-0.3-0.4-0.6-0.5c-0.2,0-0.4-0.1-0.6-0.2c-0.1-0.1-0.1-0.1-0.2-0.1
		c-0.2-0.1-0.3,0-0.2,0.1c0.4,0.5,0.7,1.1,1.1,1.6c0,0.1,0,0.2,0.1,0.3c0.1,0.2,0.1,0.3,0.2,0.5c0,0,0,0.1,0,0.1
		c-0.3-0.1-0.6-0.1-0.8-0.1c-0.2,0-0.4,0-0.5-0.2c-0.1-0.1-0.1,0-0.1,0.1c0,0.7,0.3,1.3,0.8,1.9c-0.3,0-0.6,0-0.9,0.1
		c-0.1,0-0.1,0.1-0.1,0.1c0.2,0.4,0.5,0.7,1.1,0.9c-0.3,0.2-0.4,0.4-0.4,0.7c0,0.3-0.1,0.5-0.2,0.6c-0.1,0-0.1,0.1,0,0.1
		c0.3,0.2,0.7,0.2,1.1,0.1c-0.2,0.3-0.3,0.7-0.2,1.1c0.3,0.1,0.5,0,0.8-0.1c0,0.1,0,0.2-0.1,0.4c0,0.1,0,0.3-0.1,0.4
		c0,0-0.1,0.1,0,0.1c0.4,0.1,0.8,0,1.2-0.1c0,0.3,0,0.6,0.1,0.9c0,0.1,0.1,0.1,0.2,0c0.2-0.3,0.4-0.5,0.6-0.7c0,0.1,0.1,0.2,0.2,0.3
		c0.1,0.1,0.2,0.2,0.2,0.4c0,0,0,0.1,0,0.1C250.9,57.3,251.4,56.8,251.5,56.5z M260.2,63.9c-0.3,0-0.6,0-0.9,0
		c0.6-0.6,0.8-1.2,0.8-1.9c0-0.1,0-0.2-0.1-0.1c-0.1,0.1-0.2,0.2-0.4,0.2c-0.3,0-0.5,0-0.8,0.2c0,0,0-0.1,0-0.1
		c0.1-0.2,0.1-0.3,0.2-0.5c0.1-0.1,0.1-0.2,0.1-0.3c0.3-0.5,0.6-1.1,1-1.6c0.1-0.1-0.1-0.2-0.2-0.1c-0.1,0.1-0.1,0.1-0.2,0.1
		c-0.1,0.1-0.3,0.2-0.6,0.2c-0.3,0.1-0.5,0.2-0.5,0.5c-0.4-0.2-0.7-0.1-1,0.4c0-0.3-0.1-0.6-0.4-0.5c0.1-0.2,0-0.4-0.2-0.4
		c-0.2-0.3-0.6-0.6-0.8-0.9c0,0-0.1-0.1-0.1-0.1v0c0,0-0.1,0-0.1,0.1c-0.2,0.3-0.5,0.6-0.7,0.9c-0.2,0.1-0.3,0.2-0.2,0.4
		c-0.3,0-0.4,0.2-0.4,0.5c-0.3-0.5-0.7-0.6-1-0.4c0-0.3-0.2-0.4-0.6-0.5c-0.2,0-0.4-0.1-0.6-0.2c-0.1-0.1-0.1-0.1-0.2-0.1
		c-0.2-0.1-0.3,0-0.2,0.1c0.3,0.5,0.7,1.1,1,1.6c0,0.1,0,0.2,0.1,0.3c0.1,0.2,0.1,0.3,0.2,0.5c0,0,0,0.1,0,0.1
		c-0.3-0.1-0.6-0.1-0.8-0.2c-0.2,0-0.4-0.1-0.5-0.2c-0.1-0.1-0.1,0-0.1,0.1c0,0.7,0.2,1.3,0.8,1.9c-0.3,0-0.6,0-0.9,0
		c-0.1,0-0.1,0-0.1,0.1c0.2,0.4,0.4,0.7,1,1c-0.3,0.1-0.4,0.4-0.5,0.7c0,0.3-0.1,0.5-0.3,0.6c-0.1,0-0.1,0.1,0,0.1
		c0.3,0.2,0.7,0.2,1.1,0.1c-0.2,0.3-0.3,0.7-0.3,1.1c0.3,0.1,0.5,0,0.8-0.1c0,0.1-0.1,0.2-0.1,0.4c0,0.1-0.1,0.3-0.1,0.4
		c0,0-0.1,0.1,0,0.1c0.4,0.1,0.8,0.1,1.2-0.1c0,0.3,0,0.6,0.1,0.9c0,0.1,0.1,0.1,0.2,0c0.2-0.3,0.4-0.5,0.7-0.7
		c0,0.1,0.1,0.2,0.2,0.3c0.1,0.1,0.2,0.2,0.2,0.4c0,0,0,0.1,0,0.1c0.2,0,0.6-0.5,0.7-0.8c0.3,0.2,0.4,0.3,0.6,0.6
		c0.1,0.1,0.1,0,0.2,0c0.1-0.3,0.1-0.6,0.1-0.9c0.3,0.1,0.7,0.2,1.2,0.1c0.1,0,0-0.1,0-0.1c-0.1-0.1-0.1-0.3-0.1-0.5
		c0-0.2,0-0.3-0.1-0.4c0.3,0.1,0.5,0.1,0.8,0.1c0-0.4-0.1-0.7-0.3-1.1c0.4,0.1,0.8,0.1,1.1-0.1c0.1-0.1,0-0.1,0-0.1
		c-0.2-0.1-0.3-0.3-0.3-0.6c0-0.3-0.2-0.5-0.5-0.7c0.6-0.2,0.9-0.6,1-1C260.3,64,260.3,63.9,260.2,63.9z M265.5,51.8
		c-0.3,0-0.6-0.1-0.9-0.1c0.6-0.6,0.8-1.2,0.8-1.9c0-0.1,0-0.2-0.1-0.1c-0.1,0.1-0.2,0.2-0.4,0.2c-0.3,0-0.6,0-0.8,0.1
		c0,0,0-0.1,0-0.1c0.1-0.2,0.1-0.3,0.2-0.5c0.1-0.1,0.1-0.2,0.1-0.3c0.4-0.5,0.7-1.1,1-1.6c0.1-0.1-0.1-0.2-0.2-0.1
		c-0.1,0.1-0.1,0.1-0.2,0.1c-0.2,0.1-0.3,0.2-0.6,0.2c-0.3,0.1-0.5,0.2-0.6,0.5c-0.4-0.2-0.7-0.1-1,0.3c0-0.3,0-0.6-0.4-0.6
		c0.1-0.2,0-0.4-0.2-0.5c-0.2-0.3-0.6-0.6-0.8-0.9c0,0-0.1-0.1-0.1-0.1l0,0c0,0-0.1,0-0.1,0.1c-0.2,0.3-0.5,0.6-0.7,0.9
		c-0.2,0.1-0.3,0.2-0.2,0.4c-0.3,0-0.4,0.2-0.4,0.5c-0.3-0.5-0.6-0.6-1-0.4c0-0.3-0.2-0.4-0.5-0.5c-0.2,0-0.4-0.1-0.5-0.2
		c-0.1-0.1-0.1-0.1-0.2-0.1c-0.2-0.1-0.3,0-0.2,0.1c0.3,0.6,0.6,1.1,0.9,1.7c0,0.1,0,0.2,0.1,0.3c0.1,0.2,0.1,0.3,0.2,0.5
		c0,0,0,0.1,0,0.1c-0.3-0.1-0.6-0.2-0.8-0.2c-0.2,0-0.4-0.1-0.4-0.2c-0.1-0.1-0.1,0-0.1,0.1c0,0.7,0.2,1.3,0.7,1.9
		c-0.3,0-0.6,0-0.9,0c-0.1,0-0.1,0-0.1,0.1c0.1,0.4,0.4,0.7,1,1c-0.3,0.1-0.4,0.3-0.5,0.6c0,0.3-0.1,0.5-0.3,0.6
		c-0.1,0-0.1,0.1,0,0.1c0.3,0.2,0.7,0.3,1.1,0.2c-0.2,0.3-0.3,0.7-0.3,1.1c0.3,0.1,0.5,0,0.8,0c0,0.1-0.1,0.2-0.1,0.4
		c0,0.1-0.1,0.3-0.1,0.4c0,0-0.1,0.1,0,0.1c0.4,0.1,0.8,0.1,1.2,0c0,0.3,0,0.6,0.1,0.9c0,0.1,0.1,0.1,0.2,0c0.2-0.3,0.4-0.5,0.7-0.6
		c0,0.1,0.1,0.2,0.2,0.3c0.1,0.1,0.2,0.2,0.2,0.4c0,0,0,0.1,0,0.1c0.2,0,0.7-0.5,0.8-0.7c0.3,0.2,0.3,0.3,0.5,0.6
		c0.1,0.1,0.1,0,0.2,0c0.1-0.3,0.1-0.6,0.1-0.9c0.3,0.1,0.7,0.2,1.2,0.1c0.1,0,0-0.1,0-0.1c-0.1-0.1-0.1-0.3-0.1-0.5
		c0-0.2,0-0.3,0-0.4c0.3,0.1,0.5,0.2,0.8,0.1c0.1-0.4,0-0.7-0.2-1.1c0.4,0.1,0.8,0.1,1.2-0.1c0.1,0,0-0.1,0-0.1
		c-0.2-0.1-0.2-0.3-0.2-0.6c0-0.3-0.2-0.5-0.4-0.7c0.6-0.2,0.9-0.6,1.1-0.9C265.6,51.9,265.6,51.8,265.5,51.8z M285,60.2
		c0.1-0.1,0.2-0.2,0.2-0.4c0.3,0,0.6-0.1,0.7-0.3c0.1,0,0.1-0.1,0.2-0.2c0.1-0.4-0.2-0.4-0.5-0.4c-0.2,0-0.4,0-0.5,0.2
		c-0.2,0-0.4,0-0.6,0.1c-0.5-0.2-0.8-0.2-1.3,0c-0.3,0.1-0.7,0.2-1-0.1c-0.2-0.2-0.4-0.3-0.7-0.4c-0.4-0.1-0.8-0.1-1.2,0
		c-0.3,0-0.5,0.1-0.7,0.2c-0.2,0-0.4,0-0.6,0c-0.3-0.3-0.6-0.6-1.1-0.6c-0.4,0-0.9,0-1.4,0c-0.1-0.1-0.2-0.2-0.3-0.2
		c0-0.2-0.1-0.4-0.4-0.5c-0.1-0.3-0.2-0.6-0.5-0.7c-0.1-0.1-0.2-0.2-0.3-0.3c-0.1-0.1-0.1-0.1-0.1-0.2c0-0.1-0.1-0.3-0.2-0.4
		c-0.1-0.1-0.1-0.1-0.1-0.2c0-0.1,0-0.3-0.1-0.4c0-0.1,0-0.2,0-0.2c0.1-0.1,0.1-0.3,0.1-0.4c0.2,0.2,0.4,0.4,0.9,0.1
		c0.4,0,0.7-0.1,0.9-0.4c0.4-0.2,0.4-0.4,0.2-0.4c-0.5-0.1-0.8-0.1-1-0.3c-0.1-0.1-0.2-0.2-0.3-0.2c0.5-0.1,1-0.2,1.6,0
		c0.5,0.1,1,0.3,1.6,0.8c0.6,0.4,1,0.9,1.8,1.3c0.9,0.5,1.9,0.8,2.8,0.7c0.5,0,0.9-0.1,1.4-0.4c0.1-0.1,0.1-0.2,0.1-0.2
		c0-0.1-0.1-0.1-0.2-0.1c-0.3,0-0.6,0.1-0.8,0.1c-0.8,0-1.3-0.2-1.9-0.4c-0.9-0.4-1.4-0.8-1.8-1.3c-0.3-0.3-0.7-0.6-1.1-0.9
		c1.2,0.4,2.6,1.4,4.3,0.3c0.2-0.1,0.1-0.3-0.1-0.2c-0.3,0.1-0.5,0.1-0.8,0.1c-0.6,0-1.1-0.1-1.6-0.3c-0.4-0.2-0.8-0.3-1.1-0.6
		c-0.4-0.2-0.7-0.4-1.1-0.5c-0.4-0.2-0.8-0.3-1.2-0.4c-0.5,0-1,0-1.5,0.1c-0.5,0-1,0.2-1.4,0.4c-0.3,0.1-0.7,0.3-1,0.5
		c-0.2,0.1-0.4,0.3-0.6,0.4c-0.1-0.1-0.2-0.2-0.4-0.3c-0.4-0.3-0.9-0.3-1.4-0.1l0,0c-0.1,0.1-0.1,0.3,0.1,0.5c-0.1,0.1,0,0.2,0.1,0.2
		c0.2,0.1,0.3,0.2,0.3,0.3c0.1,0,0.3,0.1,0.4,0.2c0,0.1-0.1,0.2-0.1,0.3c-0.3,0.2-0.6,0.5-0.7,0.8c0,0.2-0.2,0.3-0.3,0.4
		c-0.3,0.2-0.2,0.6,0.3,0.6c0,0.1,0,0.2,0.1,0.3c0.1,0.1,0.2,0.1,0.2,0.2c0.2,0.1,0.3,0.1,0.5,0c0.2-0.1,0.3-0.2,0.5-0.2
		c0,0,0,0.1,0,0.2c-0.4,0.4-0.5,0.6-0.3,0.8c-0.2,0.4-0.2,0.7,0.2,0.6c0,0.1,0,0.1,0.1,0.2c-0.2,0.1-0.2,0.3-0.1,0.5
		c0,0.1,0,0.1,0.1,0.2c-0.3,0.2-0.7,0.4-0.5,0.7c0,0.1,0,0.3-0.1,0.4c-0.1,0.1-0.2,0.2-0.3,0.3c-0.2,0.3-0.1,0.5,0.3,0.5
		c0,0.2,0.1,0.3,0.2,0.4c-0.1,0.2-0.2,0.3,0,0.5c0,0.1,0,0.2,0.1,0.2c0.1,0,0,0.1,0,0.2c-0.1,0.1-0.2,0.3,0.1,0.3
		c0.1,0,0.1,0,0.1,0.1c0,0.1,0,0.3,0.1,0.3c0.1,0,0.1,0.1,0,0.1c-0.2,0.2-0.2,0.3,0,0.5c0,0.3,0,0.5-0.1,0.7
		c-0.1,0.2-0.2,0.5-0.2,0.7c-0.2,0-0.3,0.3-0.4,0.8c-0.3,0.4-0.6,0.6-1,0.7c-0.4,0.1-0.5,0.4,0,0.5c0,0.1,0,0.3,0.4,0.4
		c0.4,0.1,0.9,0.2,1.2-0.2c0.1-0.1,0.2-0.3,0-0.5c0-0.1,0-0.1,0-0.2c0.1-0.2,0.2-0.2,0.3-0.3c0.1,0,0.1-0.2,0.1-0.4
		c0-0.2,0-0.4,0.1-0.6c0.2-0.1,0.4-0.4,0.5-0.9c0.1,0,0.1-0.1,0.2-0.3c0.1-0.1,0.2-0.2,0.3-0.1c0.1,0,0.1,0,0.1,0c0,0.1,0,0.3,0,0.5
		c0.2,0.3,0,0.8-0.2,1c-0.1,0.2-0.2,0.4-0.1,0.6c0.1,0,0,0.1,0,0.1c-0.1,0-0.1,0.1-0.1,0.2c0,0.1,0,0.2-0.1,0.2
		c-0.1,0.2-0.3,0.5-0.4,0.8c-0.1,0-0.3,0.2-0.3,0.4c-0.1,0-0.2,0.1-0.2,0.2c-0.1,0.2-0.3,0.2-0.5,0.3c-0.1,0.1-0.1,0.2-0.1,0.3
		c0.1,0,0.1,0.1,0.2,0.1c0.1,0,0.2,0,0.3,0c0,0.1-0.1,0.2,0.2,0.3c0.2,0.1,0.3,0.1,0.5,0c0.2-0.1,0.3-0.2,0.5-0.3
		c0.2-0.2,0.2-0.4,0.1-0.6c0,0,0-0.1,0-0.1c0.1-0.1,0.2-0.3,0.2-0.4c0.2-0.1,0.3-0.2,0.2-0.5c0-0.1,0.1-0.2,0.1-0.3
		c0.2-0.3,0.3-0.5,0.4-0.8c0.2-0.3,0.3-0.5,0.3-0.8c0.1-0.1,0.2-0.2,0.3-0.4c0.2,0,0.3-0.1,0.4-0.1c0.2,0.1,0.4,0,0.6,0
		c0.1,0.3,0.3,0.2,0.5,0c0.1,0.3,0.2,0.4,0.8,0.1c0,0.1,0,0.2,0,0.3c-0.1,0.2,0,0.4,0.1,0.6c0,0.1,0,0.1,0,0.2
		c-0.1,0.1-0.1,0.2-0.1,0.3c-0.2,0.2-0.4,0.5-0.5,0.8c-0.1,0.1-0.3,0.2-0.4,0.3c-0.3,0.1-0.7,0.4-1,0.8c-0.1,0-0.2,0.1-0.3,0.1
		c-0.1,0-0.2,0-0.2,0.1c0,0.1,0,0.2,0.2,0.2c0,0.1,0,0.3,0.3,0.4c0.3,0.1,0.5,0.1,0.9,0.1c0.2,0,0.3-0.1,0.5-0.2
		c0.1-0.2,0.1-0.3,0-0.5c0.1,0,0.1,0,0.2,0c0,0,0,0,0.2,0c0.2,0,0.2-0.3,0.2-0.6c0-0.2,0.1-0.3,0.2-0.4c0.3-0.2,0.5-0.8,1-0.9
		c0.2,0,0.3-0.1,0.4-0.3c0.2-0.1,0.4-0.3,0.6-0.5c0.1,0,0.3-0.1,0.4-0.1c0.1,0,0.1,0,0.2,0c0,0.1,0.1,0.3,0.4,0.3
		c0.1,0.1,0.2,0.2,0.3,0.3c0,0.1,0,0.3,0.1,0.4c-0.1,0.3-0.3,0.5-0.4,0.8c-0.2,0.3-0.5,0.6-0.7,0.7c-0.3,0.1-0.6,0.3-0.6,0.7
		c-0.1,0.1-0.2,0.2-0.3,0.3c-0.2,0.1-0.3,0.2-0.5,0.1c-0.1,0-0.2,0-0.2,0.1c0,0.2,0.1,0.4,0.4,0.4c-0.1,0.1-0.2,0.2,0,0.4
		c0.2,0.2,0.5,0.2,1.1,0.1c0.3-0.1,0.5-0.3,0.7-0.5c0.2-0.2,0.1-0.3-0.1-0.5c0.1,0,0.2-0.1,0.2-0.2c0.3-0.1,0.5-0.3,0.5-0.6
		c0.4-0.4,0.7-0.8,0.9-1.2c0,0,0.1,0,0.1,0c0.3-0.2,0.5-0.4,0.8-0.6c0,0,0.1-0.1,0.1-0.1c0-0.1,0.1-0.1,0.1-0.1
		c0.2,0,0.3-0.4,0.1-0.6c-0.1-0.2,0-0.2,0.1-0.3c0.1-0.1,0.2-0.3,0.2-0.6c0.4-0.2,0.5-0.5,0.3-0.9c0.3-0.2,0.3-0.4-0.1-0.6
		c0-0.2,0-0.5-0.1-0.7c0.3,0,0.7-0.1,0.4-0.5c-0.1-0.1-0.1-0.2-0.2-0.3c0.2,0,0.3-0.1,0.5-0.3c0.2,0,0.3-0.1,0.4-0.2
		C285,60.8,285.1,60.7,285,60.2z M309.6,69.2l0.7-1.7c-6.8-3-13.8-5.4-21.1-7.3l-2.6,10.2c6.7,1.7,13.2,4,19.4,6.7l-2.7,6.2l0,0
		c-5.9-2.6-12-4.7-18.4-6.4l6.7-26.5l14.5-5.4l8.2,13.2l-7.5,17.1c-6.3-2.8-12.9-5.1-19.7-6.8l1.7-6.6
		C295.9,63.8,302.9,66.2,309.6,69.2z M307.2,69.8c-0.3-0.4-0.8-0.5-1.3-0.6c-0.5-0.2-0.9-0.3-1.4-0.4c-0.3,0-0.6-0.1-0.8-0.2
		c-0.4-0.2-0.8-0.3-1.2-0.3c-1.1-0.9-2.4-1-3.6-0.8c-0.1,0-0.3,0-0.4,0c-0.7-0.3-1.4-0.5-2.2-0.6c-1.2-0.7-2-1.1-2.5-1.1
		c-0.2-0.2-0.4-0.3-0.6-0.3c0-0.1-0.1-0.2-0.2-0.2c0,0,0,0,0-0.1c0.2-0.1,0.3-0.2,0.2-0.3c0-0.1-0.3-0.3-0.6-0.3
		c-0.1-0.2-0.4-0.4-0.6-0.4c-0.1-0.2-0.2-0.3-0.5-0.3c-0.1,0-0.1,0-0.1,0.1c0,0.1,0,0.1,0,0.2c-0.2,0.2-0.3,0.3-0.5,0.3
		c-0.2,0-0.3,0-0.5,0c-0.1,0-0.2,0-0.4,0c-0.2,0-0.2,0.2-0.1,0.3c0,0.1,0.1,0.1,0.1,0.2c0.1,0.1,0.2,0.2,0.3,0.2
		c0.2,0.1,0.3,0.3,0.7,0.2c0.1,0,0.2,0,0.3,0c0,0.1,0.1,0.1,0.3,0.2c0.1,0.3,0.2,0.6,0.6,0.8c0,0.1,0,0.1,0.1,0.2
		c0.1,0.1,0.1,0.1,0,0.2c-0.1,0-0.2,0.1-0.3,0.1c-0.2,0-0.4,0-0.6,0.1c-0.2,0-0.4-0.1-0.6,0.1l0,0c-0.1,0-0.2,0-0.3-0.1
		c-0.2-0.1-0.4-0.1-0.5,0c-0.2,0.1-0.2,0.2,0,0.3c0,0.1,0.1,0.1,0.2,0.2c0.2,0,0.3,0.1,0.4,0.3c0.2,0.1,0.4,0.1,0.5-0.1
		c0.1,0,0.3,0,0.4,0c0.2,0.1,0.5,0.1,0.7,0c0.1,0,0.3,0,0.4,0c0.2,0.1,0.3,0.2,0.5,0.1c0.2,0.1,0.5,0.3,0.8,0.3
		c0.1,0.2,0.2,0.3,0.4,0.4c0,0,0,0.1,0,0.1c-0.2,0-0.3,0.1-0.4,0.1c-0.2,0-0.4,0-0.5,0.1c-0.1,0-0.2-0.1-0.3,0
		c-0.1-0.1-0.2-0.1-0.3-0.2c-0.2-0.1-0.4-0.1-0.5,0c-0.1,0.1-0.1,0.2,0,0.3c0,0.1,0,0.2,0.3,0.2c0,0.1,0.1,0.1,0.3,0.1
		c0.1,0.1,0.2,0.1,0.3,0.2c0.1,0.1,0.3,0.1,0.6-0.1c0.3,0.1,0.7,0,1,0c0.2,0.1,0.4,0.1,0.7,0.1c0.1,0,0.2,0,0.3,0c0.1,0,0.2,0,0.3,0
		c0.4-0.3,0.9-0.2,1.5,0.2c0.2,0.1,0.5,0.2,1,0.2c-0.1,0.1-0.2,0.2-0.3,0.3c-0.2,0.2-0.4,0.2-0.6,0.1c-0.2,0-0.5-0.1-0.7-0.1
		c-0.2,0-0.4,0.3,0,0.3c0,0.1,0.1,0.1,0.3,0.2c0,0,0.1,0.1,0.3,0.1c0,0,0.1,0.1,0.2,0.1c0.1,0,0.2,0.1,0.3-0.1
		c0.1-0.1,0.3-0.1,0.6-0.1c0.1,0,0.2,0,0.3-0.1c0.2,0,0.4,0,0.6,0c0.2,0,0.3,0,0.4-0.1c0.1-0.1,0.2-0.1,0.3-0.1c0.1,0,0.3,0,0.4,0
		c0.3,0.1,0.6,0.3,1,0.3c0.5,0.2,0.9,0.5,1.2,0.8c0.2,0.2,0.4,0.2,0.6,0.3c0.1,0,0.1,0.1,0.2,0.1c-0.1,0.2,0,0.3,0,0.5
		c-0.1,0-0.1,0-0.1,0.1c-0.6-0.1-0.8,0.2-0.6,0.4c0.1,0.1,0.1,0.1,0.2,0.1c0.1,0.1,0.2,0.2,0.4,0.1c0.3-0.1,0.5-0.2,0.7-0.4
		c0.3-0.1,0.4-0.3,0.1-0.5c-0.1-0.1-0.2-0.1-0.2-0.2c-0.1-0.3-0.2-0.6-0.2-0.9c0-0.1,0-0.2-0.1-0.2c-0.2,0-0.4-0.1-0.5-0.2
		c-0.2-0.1-0.3-0.3-0.3-0.5c0-0.2,0-0.4,0-0.5c0-0.2-0.1-0.3-0.2-0.4c0,0-0.1-0.1,0-0.1c0.1-0.1,0.3,0,0.4,0c0.2,0,0.4,0.2,0.7,0.3
		c0.4,0.3,0.9,0.6,1.3,0.7c0.3,0.3,0.7,0.5,1,0.5c0.5,0.2,0.8,0.2,1-0.2C307.3,70.3,307.4,70.1,307.2,69.8z M307.8,53.2l-0.1,0
		l-2.5-0.9l-0.5-2.6l0-0.1l-0.1,0.1l-2,1.7l-2.5-0.9l-0.1,0l0,0.1l0.5,2.6l-2,1.7l-0.1,0.1l0.1,0l2.5,0.9l0.5,2.6l0,0.1l0.1-0.1
		l2-1.7l2.5,0.9l0.1,0l0-0.1l-0.5-2.6L307.8,53.2L307.8,53.2z M298.1,170.6c-8.8,14.1-24.5,23.5-42.2,23.5h0
		c-17.8,0-33.4-9.4-42.2-23.5H0v85.3h511.8v-85.3H298.1z"/>
	<path id="gb" fill="currentColor" d="M113.4,170.7L0,227.4v-56.7H113.4z M0,28.6v56.7h113.4L0,28.6z M298.7,0v78L454.8,0H298.7z M132.5,170.7L0,236.9
		V256h38.2l170.7-85.3H132.5z M213.3,0H57.2l156.1,78V0z M208.8,85.3L38.2,0H0v19.1l132.5,66.3H208.8z M512,227.4v-56.7H398.6
		L512,227.4z M512,85.3V28.6L398.6,85.3H512z M473.8,0L303.2,85.3h76.3L512,19.1V0H473.8z M213.3,256v-78L57.3,256H213.3z
		M303.2,170.7L473.8,256H512v-19.1l-132.5-66.3H303.2z M298.7,256h156.1l-156.1-78V256z M281.6,0h-51.2v102.4H0v51.2h230.4V256h51.2
		V153.6H512v-51.2H281.6V0z"/>
</svg>